<?xml version="1.0" encoding="UTF-8" standalone="no"?>
<!-- Created with Inkscape (http://www.inkscape.org/) -->

<svg
   version="1.1"
   id="svg25"
   xml:space="preserve"
   width="834.66669"
   height="456"
   viewBox="0 0 834.66669 456"
   sodipodi:docname="event-loop.svg"
   inkscape:version="1.1 (c68e22c387, 2021-05-23)"
   xmlns:inkscape="http://www.inkscape.org/namespaces/inkscape"
   xmlns:sodipodi="http://sodipodi.sourceforge.net/DTD/sodipodi-0.dtd"
   xmlns="http://www.w3.org/2000/svg"
   xmlns:svg="http://www.w3.org/2000/svg"><defs
     id="defs29" /><sodipodi:namedview
     id="namedview27"
     pagecolor="#ffffff"
     bordercolor="#666666"
     borderopacity="1.0"
     inkscape:pageshadow="2"
     inkscape:pageopacity="0.0"
     inkscape:pagecheckerboard="0"
     showgrid="false"
     inkscape:zoom="1.1425439"
     inkscape:cx="417.48944"
     inkscape:cy="87.961612"
     inkscape:window-width="1366"
     inkscape:window-height="714"
     inkscape:window-x="1920"
     inkscape:window-y="28"
     inkscape:window-maximized="1"
     inkscape:current-layer="g33" /><g
     id="g31"
     inkscape:groupmode="layer"
     inkscape:label="event-loop"
     transform="matrix(1.3333333,0,0,-1.3333333,0,456)"><g
       id="g33"
       transform="scale(0.1)"><path
         d="m 7.08594,2416.5 h 850.379 v 141.73 H 7.08594 Z"
         style="fill:#ffffff;fill-opacity:1;fill-rule:nonzero;stroke:none"
         id="path35" /><path
         d="m 7.08594,2416.5 h 850.379 v 141.73 H 7.08594 Z"
         style="fill:none;stroke:#000000;stroke-width:14.173;stroke-linecap:butt;stroke-linejoin:miter;stroke-miterlimit:10;stroke-dasharray:none;stroke-opacity:1"
         id="path37" /><path
         d="m 7.08594,2274.77 h 850.379 V 2416.5 H 7.08594 Z"
         style="fill:#ffffff;fill-opacity:1;fill-rule:nonzero;stroke:none"
         id="path39" /><path
         d="m 7.08594,2274.77 h 850.379 V 2416.5 H 7.08594 Z"
         style="fill:none;stroke:#000000;stroke-width:14.173;stroke-linecap:butt;stroke-linejoin:miter;stroke-miterlimit:10;stroke-dasharray:none;stroke-opacity:1"
         id="path41" /><path
         d="m 7.08594,2133.04 h 850.379 v 141.73 H 7.08594 Z"
         style="fill:#ffffff;fill-opacity:1;fill-rule:nonzero;stroke:none"
         id="path43" /><path
         d="m 7.08594,2133.04 h 850.379 v 141.73 H 7.08594 Z"
         style="fill:none;stroke:#000000;stroke-width:14.173;stroke-linecap:butt;stroke-linejoin:miter;stroke-miterlimit:10;stroke-dasharray:none;stroke-opacity:1"
         id="path45" /><path
         d="m 7.08594,1991.3 h 850.379 v 141.73 H 7.08594 Z"
         style="fill:#ffffff;fill-opacity:1;fill-rule:nonzero;stroke:none"
         id="path47" /><path
         d="m 7.08594,1991.3 h 850.379 v 141.73 H 7.08594 Z"
         style="fill:none;stroke:#000000;stroke-width:14.173;stroke-linecap:butt;stroke-linejoin:miter;stroke-miterlimit:10;stroke-dasharray:none;stroke-opacity:1"
         id="path49" /><path
         d="m 165.242,3240.04 h 82.133 v -14.08 h -63.359 v -37.55 h 61.011 v -14.08 h -61.011 v -49.28 h 65.707 v -14.08 h -84.481 v 129.07"
         style="fill:#000000;fill-opacity:1;fill-rule:nonzero;stroke:none"
         id="path51" /><path
         d="m 268.203,3209.53 h 16.793 l 30.137,-82.72 30.14,82.72 h 16.793 l -36.152,-98.56 h -21.559 l -36.152,98.56"
         style="fill:#000000;fill-opacity:1;fill-rule:nonzero;stroke:none"
         id="path53" /><path
         d="m 472.027,3165.24 v -7.33 h -75.093 c 0.711,-11.47 4.058,-20.21 10.046,-26.22 5.993,-5.99 14.325,-8.98 25.008,-8.98 6.207,0 12.223,0.78 18.039,2.34 5.821,1.57 11.586,3.91 17.309,7.04 v -14.07 c -5.77,-3.06 -11.684,-5.39 -17.746,-7.01 -6.039,-1.59 -12.164,-2.38 -18.371,-2.38 -15.598,0 -27.953,4.56 -37.071,13.67 -9.093,9.15 -13.64,21.5 -13.64,37.08 0,16.1 4.363,28.87 13.09,38.31 8.726,9.46 20.496,14.19 35.312,14.19 13.297,0 23.809,-4.18 31.531,-12.54 7.723,-8.36 11.586,-19.73 11.586,-34.1 m -16.425,4.4 c -0.122,8.56 -2.629,15.39 -7.516,20.5 -4.867,5.11 -11.305,7.66 -19.324,7.66 -9.094,0 -16.379,-2.47 -21.852,-7.41 -5.453,-4.93 -8.594,-11.89 -9.426,-20.86 l 58.118,0.11"
         style="fill:#000000;fill-opacity:1;fill-rule:nonzero;stroke:none"
         id="path55" /><path
         d="m 581.543,3171.33 v -60.36 h -16.426 v 59.84 c 0,9.02 -1.797,15.77 -5.39,20.24 -3.571,4.5 -8.934,6.75 -16.098,6.75 -8.606,0 -15.387,-2.71 -20.348,-8.14 -4.965,-5.4 -7.445,-12.78 -7.445,-22.15 v -56.54 H 499.41 v 98.56 h 16.426 v -14.08 c 3.84,5.5 8.359,9.61 13.566,12.32 5.207,2.74 11.207,4.11 18.004,4.11 11.242,0 19.739,-3.43 25.485,-10.3 5.765,-6.85 8.652,-16.93 8.652,-30.25"
         style="fill:#000000;fill-opacity:1;fill-rule:nonzero;stroke:none"
         id="path57" /><path
         d="m 630.527,3237.69 v -28.16 h 32.856 v -11.73 h -32.856 v -53.75 c 0,-8.07 1.078,-13.25 3.227,-15.55 2.176,-2.3 6.59,-3.45 13.238,-3.45 h 16.391 v -14.08 h -16.391 c -12.441,0 -21.035,2.37 -25.777,7.12 -4.742,4.77 -7.113,13.42 -7.113,25.96 v 53.75 h -11.735 v 11.73 h 11.735 v 28.16 h 16.425"
         style="fill:#000000;fill-opacity:1;fill-rule:nonzero;stroke:none"
         id="path59" /><path
         d="m 745.914,3204.84 v -14.08 c -4.402,2.35 -8.973,4.11 -13.715,5.28 -4.742,1.17 -9.656,1.76 -14.738,1.76 -7.727,0 -13.52,-1.21 -17.379,-3.63 -3.863,-2.42 -5.797,-6.05 -5.797,-10.89 0,-3.69 1.348,-6.59 4.035,-8.69 2.715,-2.1 8.164,-4.11 16.352,-6.01 l 5.246,-1.21 c 11.098,-2.45 18.98,-5.91 23.648,-10.38 4.696,-4.47 7.039,-10.72 7.039,-18.74 0,-9.11 -3.496,-16.34 -10.484,-21.67 -6.992,-5.3 -16.609,-7.95 -28.859,-7.95 -5.106,0 -10.422,0.58 -15.949,1.76 -5.524,1.17 -11.34,2.93 -17.454,5.28 v 16.42 c 5.746,-3.13 11.407,-5.47 16.977,-7.04 5.574,-1.56 11.086,-2.34 16.539,-2.34 7.332,0 12.965,1.28 16.902,3.85 3.934,2.59 5.903,6.22 5.903,10.89 0,4.35 -1.395,7.67 -4.18,9.97 -2.785,2.32 -8.91,4.56 -18.371,6.71 l -5.316,1.28 c -10.047,2.11 -17.305,5.33 -21.778,9.68 -4.449,4.36 -6.676,10.32 -6.676,17.9 0,9.21 3.227,16.33 9.68,21.34 6.453,5.03 15.609,7.55 27.465,7.55 5.867,0 11.391,-0.59 16.574,-1.76 5.18,-1.17 9.961,-2.93 14.336,-5.28"
         style="fill:#000000;fill-opacity:1;fill-rule:nonzero;stroke:none"
         id="path61" /><path
         d="M 432.277,2983.42 V 2680.37"
         style="fill:none;stroke:#000000;stroke-width:14.173;stroke-linecap:butt;stroke-linejoin:miter;stroke-miterlimit:10;stroke-dasharray:none;stroke-opacity:1"
         id="path63" /><path
         d="m 432.277,2574.07 -70.867,141.73 70.867,-35.43 70.864,35.43"
         style="fill:#000000;fill-opacity:1;fill-rule:evenodd;stroke:none"
         id="path65" /><path
         d="m 432.277,2574.07 -70.867,141.73 70.867,-35.43 70.864,35.43 z"
         style="fill:none;stroke:#000000;stroke-width:14.173;stroke-linecap:butt;stroke-linejoin:miter;stroke-miterlimit:10;stroke-dasharray:none;stroke-opacity:1"
         id="path67" /><path
         d="m 1707.85,3125.15 h 1984.22 v 283.457 H 1707.85 Z"
         style="fill:#ffffff;fill-opacity:1;fill-rule:nonzero;stroke:none"
         id="path69" /><path
         d="m 1707.85,3125.15 h 1984.22 v 283.457 H 1707.85 Z"
         style="fill:none;stroke:#000000;stroke-width:14.173;stroke-linecap:butt;stroke-linejoin:miter;stroke-miterlimit:10;stroke-dasharray:none;stroke-opacity:1"
         id="path71" /><path
         d="m 2122.91,3228.66 v 35.5 h -28.16 v 14.08 h 46.93 v -56.14 c -6.75,-4.69 -14.18,-8.25 -22.29,-10.67 -8.12,-2.39 -16.78,-3.59 -26,-3.59 -20.14,0 -35.91,5.88 -47.3,17.63 -11.37,11.79 -17.05,28.19 -17.05,49.21 0,21.07 5.73,37.48 17.19,49.24 11.5,11.79 27.42,17.68 47.78,17.68 8.49,0 16.54,-0.99 24.17,-2.97 7.65,-1.98 14.7,-4.9 21.15,-8.77 v -18.77 c -6.5,5.45 -13.4,9.55 -20.71,12.29 -7.32,2.76 -14.99,4.14 -23.03,4.14 -15.91,0 -27.86,-4.43 -35.82,-13.28 -7.97,-8.85 -11.96,-22.03 -11.96,-39.56 0,-17.48 3.87,-30.64 11.59,-39.49 7.73,-8.85 19.29,-13.27 34.69,-13.27 6.01,0 11.37,0.55 16.09,1.65 4.72,1.1 8.96,2.8 12.73,5.09"
         style="fill:#000000;fill-opacity:1;fill-rule:nonzero;stroke:none"
         id="path73" /><path
         d="m 2260.74,3264.45 v -7.33 h -75.1 c 0.72,-11.47 4.06,-20.21 10.05,-26.22 5.99,-5.99 14.33,-8.98 25.01,-8.98 6.21,0 12.22,0.78 18.04,2.35 5.81,1.56 11.58,3.91 17.31,7.03 v -14.07 c -5.77,-3.06 -11.69,-5.39 -17.75,-7.01 -6.04,-1.59 -12.16,-2.38 -18.37,-2.38 -15.6,0 -27.95,4.56 -37.07,13.68 -9.09,9.14 -13.64,21.49 -13.64,37.07 0,16.1 4.36,28.87 13.09,38.31 8.73,9.46 20.49,14.19 35.31,14.19 13.3,0 23.81,-4.18 31.53,-12.54 7.73,-8.36 11.59,-19.73 11.59,-34.1 m -16.43,4.4 c -0.12,8.56 -2.63,15.39 -7.51,20.5 -4.87,5.11 -11.31,7.66 -19.33,7.66 -9.09,0 -16.38,-2.47 -21.85,-7.4 -5.45,-4.94 -8.59,-11.9 -9.42,-20.87 l 58.11,0.11"
         style="fill:#000000;fill-opacity:1;fill-rule:nonzero;stroke:none"
         id="path75" /><path
         d="m 2304.55,3336.9 v -28.16 h 32.85 v -11.73 h -32.85 v -53.75 c 0,-8.07 1.07,-13.25 3.22,-15.55 2.18,-2.3 6.59,-3.44 13.24,-3.44 h 16.39 v -14.09 h -16.39 c -12.44,0 -21.03,2.37 -25.78,7.12 -4.74,4.77 -7.11,13.42 -7.11,25.96 v 53.75 h -11.73 v 11.73 h 11.73 v 28.16 h 16.43"
         style="fill:#000000;fill-opacity:1;fill-rule:nonzero;stroke:none"
         id="path77" /><path
         d="m 2498.4,3270.54 v -60.36 h -16.43 v 59.84 c 0,9.02 -1.79,15.77 -5.39,20.25 -3.57,4.49 -8.94,6.74 -16.1,6.74 -8.6,0 -15.38,-2.71 -20.35,-8.14 -4.96,-5.4 -7.44,-12.78 -7.44,-22.15 v -56.54 h -16.42 v 98.56 h 16.42 v -14.08 c 3.84,5.5 8.36,9.61 13.57,12.32 5.2,2.74 11.2,4.11 18,4.11 11.24,0 19.74,-3.43 25.48,-10.3 5.77,-6.85 8.66,-16.93 8.66,-30.25"
         style="fill:#000000;fill-opacity:1;fill-rule:nonzero;stroke:none"
         id="path79" /><path
         d="m 2615.44,3264.45 v -7.33 h -75.1 c 0.71,-11.47 4.06,-20.21 10.05,-26.22 5.99,-5.99 14.32,-8.98 25,-8.98 6.22,0 12.23,0.78 18.05,2.35 5.81,1.56 11.58,3.91 17.3,7.03 v -14.07 c -5.77,-3.06 -11.68,-5.39 -17.74,-7.01 -6.04,-1.59 -12.16,-2.38 -18.37,-2.38 -15.6,0 -27.95,4.56 -37.08,13.68 -9.09,9.14 -13.63,21.49 -13.63,37.07 0,16.1 4.36,28.87 13.09,38.31 8.72,9.46 20.49,14.19 35.31,14.19 13.29,0 23.81,-4.18 31.53,-12.54 7.72,-8.36 11.59,-19.73 11.59,-34.1 m -16.43,4.4 c -0.12,8.56 -2.63,15.39 -7.52,20.5 -4.86,5.11 -11.3,7.66 -19.32,7.66 -9.09,0 -16.38,-2.47 -21.85,-7.4 -5.45,-4.94 -8.6,-11.9 -9.43,-20.87 l 58.12,0.11"
         style="fill:#000000;fill-opacity:1;fill-rule:nonzero;stroke:none"
         id="path81" /><path
         d="m 2719.77,3308.74 -35.13,-47.95 37.48,-50.61 h -19.03 l -28.6,38.73 -27.76,-38.73 h -18.48 l 36.89,51.56 -34.54,47 h 18.81 l 25.78,-35.12 25.77,35.12 h 18.81"
         style="fill:#000000;fill-opacity:1;fill-rule:nonzero;stroke:none"
         id="path83" /><path
         d="m 2764.03,3336.9 v -28.16 h 32.85 v -11.73 h -32.85 v -53.75 c 0,-8.07 1.07,-13.25 3.22,-15.55 2.18,-2.3 6.59,-3.44 13.24,-3.44 h 16.39 v -14.09 h -16.39 c -12.44,0 -21.03,2.37 -25.78,7.12 -4.74,4.77 -7.11,13.42 -7.11,25.96 v 53.75 h -11.73 v 11.73 h 11.73 v 28.16 h 16.43"
         style="fill:#000000;fill-opacity:1;fill-rule:nonzero;stroke:none"
         id="path85" /><path
         d="m 2960.22,3264.45 v -7.33 h -75.09 c 0.71,-11.47 4.06,-20.21 10.05,-26.22 5.99,-5.99 14.32,-8.98 25,-8.98 6.21,0 12.23,0.78 18.04,2.35 5.82,1.56 11.59,3.91 17.31,7.03 v -14.07 c -5.77,-3.06 -11.68,-5.39 -17.74,-7.01 -6.04,-1.59 -12.16,-2.38 -18.38,-2.38 -15.59,0 -27.95,4.56 -37.07,13.68 -9.09,9.14 -13.64,21.49 -13.64,37.07 0,16.1 4.37,28.87 13.09,38.31 8.73,9.46 20.5,14.19 35.32,14.19 13.29,0 23.8,-4.18 31.53,-12.54 7.72,-8.36 11.58,-19.73 11.58,-34.1 m -16.42,4.4 c -0.12,8.56 -2.63,15.39 -7.52,20.5 -4.86,5.11 -11.3,7.66 -19.32,7.66 -9.1,0 -16.38,-2.47 -21.85,-7.4 -5.46,-4.94 -8.6,-11.9 -9.43,-20.87 l 58.12,0.11"
         style="fill:#000000;fill-opacity:1;fill-rule:nonzero;stroke:none"
         id="path87" /><path
         d="m 2975.87,3308.74 h 16.79 l 30.14,-82.72 30.15,82.72 h 16.79 l -36.15,-98.56 h -21.57 l -36.15,98.56"
         style="fill:#000000;fill-opacity:1;fill-rule:nonzero;stroke:none"
         id="path89" /><path
         d="m 3179.7,3264.45 v -7.33 h -75.09 c 0.71,-11.47 4.05,-20.21 10.04,-26.22 5.99,-5.99 14.33,-8.98 25.01,-8.98 6.21,0 12.22,0.78 18.04,2.35 5.82,1.56 11.59,3.91 17.3,7.03 v -14.07 c -5.76,-3.06 -11.68,-5.39 -17.74,-7.01 -6.04,-1.59 -12.16,-2.38 -18.37,-2.38 -15.6,0 -27.95,4.56 -37.07,13.68 -9.09,9.14 -13.64,21.49 -13.64,37.07 0,16.1 4.36,28.87 13.09,38.31 8.73,9.46 20.5,14.19 35.31,14.19 13.3,0 23.81,-4.18 31.53,-12.54 7.73,-8.36 11.59,-19.73 11.59,-34.1 m -16.43,4.4 c -0.12,8.56 -2.63,15.39 -7.51,20.5 -4.87,5.11 -11.31,7.66 -19.33,7.66 -9.09,0 -16.38,-2.47 -21.85,-7.4 -5.45,-4.94 -8.59,-11.9 -9.42,-20.87 l 58.11,0.11"
         style="fill:#000000;fill-opacity:1;fill-rule:nonzero;stroke:none"
         id="path91" /><path
         d="m 3289.21,3270.54 v -60.36 h -16.42 v 59.84 c 0,9.02 -1.8,15.77 -5.4,20.25 -3.56,4.49 -8.93,6.74 -16.09,6.74 -8.6,0 -15.39,-2.71 -20.35,-8.14 -4.96,-5.4 -7.44,-12.78 -7.44,-22.15 v -56.54 h -16.43 v 98.56 h 16.43 v -14.08 c 3.83,5.5 8.36,9.61 13.56,12.32 5.21,2.74 11.21,4.11 18.01,4.11 11.24,0 19.74,-3.43 25.48,-10.3 5.77,-6.85 8.65,-16.93 8.65,-30.25"
         style="fill:#000000;fill-opacity:1;fill-rule:nonzero;stroke:none"
         id="path93" /><path
         d="m 3338.2,3336.9 v -28.16 h 32.85 v -11.73 h -32.85 v -53.75 c 0,-8.07 1.07,-13.25 3.23,-15.55 2.17,-2.3 6.58,-3.44 13.23,-3.44 h 16.39 v -14.09 h -16.39 c -12.44,0 -21.03,2.37 -25.77,7.12 -4.75,4.77 -7.12,13.42 -7.12,25.96 v 53.75 h -11.73 v 11.73 h 11.73 v 28.16 h 16.43"
         style="fill:#000000;fill-opacity:1;fill-rule:nonzero;stroke:none"
         id="path95" /><path
         d="m 1707.85,1991.3 h 1984.22 v 566.922 H 1707.85 Z"
         style="fill:#ffffff;fill-opacity:1;fill-rule:nonzero;stroke:none"
         id="path97" /><path
         d="m 1707.85,1991.3 h 1984.22 v 566.922 H 1707.85 Z"
         style="fill:none;stroke:#000000;stroke-width:14.173;stroke-linecap:butt;stroke-linejoin:miter;stroke-miterlimit:10;stroke-dasharray:none;stroke-opacity:1"
         id="path99" /><path
         d="m 1927.3,2439.36 v -100.91 h 21.11 c 17.85,0 30.91,4.06 39.2,12.18 8.29,8.11 12.43,20.92 12.43,38.42 0,17.38 -4.14,30.11 -12.43,38.17 -8.29,8.09 -21.35,12.14 -39.2,12.14 h -21.11 m -18.78,14.08 h 37.22 c 25.18,0 43.64,-5.21 55.4,-15.62 11.78,-10.39 17.68,-26.65 17.68,-48.77 0,-22.27 -5.92,-38.62 -17.75,-49.06 -11.83,-10.41 -30.28,-15.62 -55.33,-15.62 h -37.22 v 129.07"
         style="fill:#000000;fill-opacity:1;fill-rule:nonzero;stroke:none"
         id="path101" /><path
         d="m 2048,2422.93 h 16.42 v -98.56 H 2048 v 98.56 m 0,37.55 h 16.42 v -21.12 H 2048 v 21.12"
         style="fill:#000000;fill-opacity:1;fill-rule:nonzero;stroke:none"
         id="path103" /><path
         d="m 2159.27,2418.24 v -14.08 c -4.4,2.34 -8.97,4.11 -13.71,5.28 -4.74,1.17 -9.66,1.76 -14.74,1.76 -7.73,0 -13.52,-1.21 -17.38,-3.63 -3.86,-2.42 -5.8,-6.05 -5.8,-10.89 0,-3.69 1.35,-6.59 4.04,-8.69 2.71,-2.1 8.16,-4.11 16.35,-6.01 l 5.25,-1.21 c 11.1,-2.45 18.98,-5.91 23.65,-10.38 4.69,-4.48 7.03,-10.72 7.03,-18.74 0,-9.11 -3.49,-16.34 -10.48,-21.67 -6.99,-5.3 -16.61,-7.95 -28.86,-7.95 -5.1,0 -10.42,0.58 -15.95,1.76 -5.52,1.17 -11.34,2.93 -17.45,5.28 v 16.42 c 5.74,-3.13 11.41,-5.47 16.98,-7.04 5.57,-1.56 11.08,-2.34 16.53,-2.34 7.34,0 12.97,1.28 16.91,3.85 3.93,2.59 5.9,6.22 5.9,10.88 0,4.36 -1.4,7.68 -4.18,9.98 -2.79,2.32 -8.91,4.56 -18.37,6.71 l -5.32,1.28 c -10.04,2.1 -17.3,5.33 -21.78,9.68 -4.44,4.35 -6.67,10.32 -6.67,17.9 0,9.21 3.23,16.32 9.68,21.34 6.45,5.03 15.61,7.55 27.46,7.55 5.87,0 11.39,-0.59 16.58,-1.76 5.18,-1.18 9.96,-2.93 14.33,-5.28"
         style="fill:#000000;fill-opacity:1;fill-rule:nonzero;stroke:none"
         id="path105" /><path
         d="m 2208.85,2338.45 v -51.63 h -16.43 v 136.11 h 16.43 v -14.08 c 3.32,5.55 7.53,9.67 12.61,12.36 5.09,2.71 11.16,4.07 18.22,4.07 11.74,0 21.26,-4.74 28.57,-14.23 7.33,-9.48 11,-21.95 11,-37.4 0,-15.45 -3.67,-27.91 -11,-37.4 -7.31,-9.48 -16.83,-14.22 -28.57,-14.22 -7.06,0 -13.13,1.34 -18.22,4.03 -5.08,2.71 -9.29,6.84 -12.61,12.39 m 53.97,35.2 c 0,11.71 -2.41,20.89 -7.22,27.54 -4.8,6.67 -11.38,10.01 -19.77,10.01 -8.38,0 -14.98,-3.34 -19.79,-10.01 -4.8,-6.65 -7.19,-15.83 -7.19,-27.54 0,-11.71 2.39,-20.9 7.19,-27.57 4.81,-6.65 11.41,-9.97 19.79,-9.97 8.39,0 14.97,3.32 19.77,9.97 4.81,6.67 7.22,15.86 7.22,27.57"
         style="fill:#000000;fill-opacity:1;fill-rule:nonzero;stroke:none"
         id="path107" /><path
         d="m 2350.87,2373.65 c -12.66,0 -21.44,-1.45 -26.33,-4.36 -4.89,-2.91 -7.33,-7.88 -7.33,-14.92 0,-5.6 1.83,-10.05 5.5,-13.35 3.67,-3.28 8.65,-4.91 14.96,-4.91 8.7,0 15.68,3.07 20.94,9.23 5.25,6.19 7.88,14.4 7.88,24.64 v 3.67 h -15.62 m 32.04,6.2 v -55.48 h -16.42 v 14.08 c -3.62,-5.62 -8.13,-9.76 -13.53,-12.43 -5.4,-2.66 -12.01,-3.99 -19.84,-3.99 -9.9,0 -17.77,2.76 -23.61,8.28 -5.82,5.55 -8.73,12.97 -8.73,22.26 0,10.85 3.66,19.03 10.97,24.53 7.3,5.52 18.22,8.29 32.74,8.29 h 22 v 1.75 c 0,7.66 -2.41,13.57 -7.22,17.75 -4.79,4.21 -11.53,6.31 -20.21,6.31 -5.52,0 -10.9,-0.59 -16.13,-1.76 -5.23,-1.17 -10.27,-2.94 -15.11,-5.28 v 14.08 c 5.84,2.35 11.52,4.1 17.02,5.28 5.52,1.17 10.89,1.76 16.09,1.76 14.08,0 24.59,-3.77 31.53,-11.3 6.97,-7.5 10.45,-18.88 10.45,-34.13"
         style="fill:#000000;fill-opacity:1;fill-rule:nonzero;stroke:none"
         id="path109" /><path
         d="m 2435.4,2451.09 v -28.16 h 32.85 v -11.73 h -32.85 v -53.75 c 0,-8.07 1.08,-13.25 3.23,-15.55 2.17,-2.3 6.59,-3.45 13.24,-3.45 h 16.38 v -14.08 h -16.38 c -12.45,0 -21.04,2.37 -25.78,7.11 -4.74,4.77 -7.11,13.43 -7.11,25.97 v 53.75 h -11.74 v 11.73 h 11.74 v 28.16 h 16.42"
         style="fill:#000000;fill-opacity:1;fill-rule:nonzero;stroke:none"
         id="path111" /><path
         d="m 2560.18,2418.24 v -14.08 c -4.6,2.34 -9.21,4.11 -13.83,5.28 -4.6,1.17 -9.24,1.76 -13.93,1.76 -10.54,0 -18.71,-3.29 -24.53,-9.86 -5.82,-6.58 -8.73,-15.81 -8.73,-27.69 0,-11.88 2.91,-21.11 8.73,-27.68 5.82,-6.58 13.99,-9.86 24.53,-9.86 4.69,0 9.33,0.58 13.93,1.76 4.62,1.17 9.23,2.93 13.83,5.27 v -14.07 c -4.5,-2.35 -9.16,-4.11 -13.98,-5.28 -4.79,-1.18 -9.9,-1.76 -15.32,-1.76 -14.74,0 -26.45,4.64 -35.13,13.93 -8.68,9.31 -13.02,21.88 -13.02,37.69 0,16.04 4.39,28.65 13.17,37.84 8.77,9.19 20.79,13.79 36.04,13.79 4.96,0 9.8,-0.59 14.52,-1.76 4.72,-1.18 9.29,-2.93 13.72,-5.28"
         style="fill:#000000;fill-opacity:1;fill-rule:nonzero;stroke:none"
         id="path113" /><path
         d="m 2671.73,2384.73 v -60.36 h -16.43 v 59.84 c 0,9.02 -1.79,15.77 -5.38,20.24 -3.57,4.5 -8.94,6.75 -16.1,6.75 -8.61,0 -15.39,-2.72 -20.35,-8.14 -4.96,-5.4 -7.44,-12.79 -7.44,-22.15 v -56.54 h -16.43 v 136.11 h 16.43 v -51.63 c 3.83,5.5 8.36,9.61 13.56,12.32 5.21,2.74 11.21,4.11 18.01,4.11 11.24,0 19.74,-3.44 25.48,-10.3 5.77,-6.85 8.65,-16.93 8.65,-30.25"
         style="fill:#000000;fill-opacity:1;fill-rule:nonzero;stroke:none"
         id="path115" /><path
         d="m 2846.12,2378.64 v -7.34 h -75.1 c 0.71,-11.46 4.06,-20.2 10.05,-26.21 5.99,-5.99 14.32,-8.98 25.01,-8.98 6.21,0 12.22,0.78 18.04,2.34 5.81,1.57 11.58,3.91 17.31,7.04 v -14.08 c -5.77,-3.05 -11.69,-5.39 -17.75,-7 -6.04,-1.59 -12.16,-2.38 -18.37,-2.38 -15.6,0 -27.95,4.56 -37.07,13.67 -9.1,9.14 -13.64,21.5 -13.64,37.07 0,16.11 4.36,28.88 13.09,38.32 8.72,9.46 20.49,14.19 35.31,14.19 13.3,0 23.8,-4.18 31.53,-12.54 7.72,-8.36 11.59,-19.73 11.59,-34.1 m -16.43,4.4 c -0.12,8.55 -2.63,15.39 -7.51,20.5 -4.87,5.1 -11.31,7.66 -19.33,7.66 -9.09,0 -16.38,-2.47 -21.85,-7.41 -5.45,-4.93 -8.59,-11.89 -9.43,-20.86 l 58.12,0.11"
         style="fill:#000000;fill-opacity:1;fill-rule:nonzero;stroke:none"
         id="path117" /><path
         d="m 2861.77,2422.93 h 16.79 l 30.14,-82.72 30.14,82.72 h 16.79 l -36.15,-98.56 h -21.56 l -36.15,98.56"
         style="fill:#000000;fill-opacity:1;fill-rule:nonzero;stroke:none"
         id="path119" /><path
         d="m 3065.59,2378.64 v -7.34 h -75.09 c 0.71,-11.46 4.06,-20.2 10.05,-26.21 5.99,-5.99 14.32,-8.98 25,-8.98 6.21,0 12.22,0.78 18.04,2.34 5.82,1.57 11.59,3.91 17.31,7.04 v -14.08 c -5.77,-3.05 -11.69,-5.39 -17.75,-7 -6.04,-1.59 -12.16,-2.38 -18.37,-2.38 -15.59,0 -27.95,4.56 -37.07,13.67 -9.09,9.14 -13.64,21.5 -13.64,37.07 0,16.11 4.37,28.88 13.09,38.32 8.73,9.46 20.5,14.19 35.31,14.19 13.3,0 23.81,-4.18 31.53,-12.54 7.73,-8.36 11.59,-19.73 11.59,-34.1 m -16.43,4.4 c -0.12,8.55 -2.62,15.39 -7.51,20.5 -4.86,5.1 -11.31,7.66 -19.33,7.66 -9.09,0 -16.37,-2.47 -21.85,-7.41 -5.45,-4.93 -8.59,-11.89 -9.42,-20.86 l 58.11,0.11"
         style="fill:#000000;fill-opacity:1;fill-rule:nonzero;stroke:none"
         id="path121" /><path
         d="m 3175.11,2384.73 v -60.36 h -16.43 v 59.84 c 0,9.02 -1.8,15.77 -5.39,20.24 -3.57,4.5 -8.93,6.75 -16.1,6.75 -8.6,0 -15.39,-2.72 -20.35,-8.14 -4.96,-5.4 -7.44,-12.79 -7.44,-22.15 v -56.54 h -16.43 v 98.56 h 16.43 v -14.08 c 3.84,5.5 8.36,9.61 13.56,12.32 5.21,2.74 11.22,4.11 18.01,4.11 11.24,0 19.74,-3.44 25.48,-10.3 5.77,-6.85 8.66,-16.93 8.66,-30.25"
         style="fill:#000000;fill-opacity:1;fill-rule:nonzero;stroke:none"
         id="path123" /><path
         d="m 3224.09,2451.09 v -28.16 h 32.86 v -11.73 h -32.86 v -53.75 c 0,-8.07 1.08,-13.25 3.23,-15.55 2.18,-2.3 6.59,-3.45 13.23,-3.45 h 16.4 v -14.08 h -16.4 c -12.44,0 -21.03,2.37 -25.77,7.11 -4.74,4.77 -7.12,13.43 -7.12,25.97 v 53.75 h -11.73 v 11.73 h 11.73 v 28.16 h 16.43"
         style="fill:#000000;fill-opacity:1;fill-rule:nonzero;stroke:none"
         id="path125" /><path
         d="m 3352.24,2451.09 v -28.16 h 32.85 v -11.73 h -32.85 v -53.75 c 0,-8.07 1.07,-13.25 3.22,-15.55 2.18,-2.3 6.59,-3.45 13.24,-3.45 h 16.39 v -14.08 h -16.39 c -12.44,0 -21.03,2.37 -25.77,7.11 -4.75,4.77 -7.12,13.43 -7.12,25.97 v 53.75 h -11.73 v 11.73 h 11.73 v 28.16 h 16.43"
         style="fill:#000000;fill-opacity:1;fill-rule:nonzero;stroke:none"
         id="path127" /><path
         d="m 3444.19,2411.2 c -8.7,0 -15.58,-3.35 -20.64,-10.05 -5.04,-6.7 -7.55,-15.86 -7.55,-27.5 0,-11.63 2.5,-20.8 7.51,-27.5 5.04,-6.7 11.93,-10.04 20.68,-10.04 8.65,0 15.5,3.35 20.54,10.08 5.06,6.72 7.59,15.88 7.59,27.46 0,11.54 -2.53,20.68 -7.59,27.43 -5.04,6.74 -11.89,10.12 -20.54,10.12 m -0.03,14.08 c 13.88,0 24.78,-4.57 32.7,-13.71 7.92,-9.12 11.88,-21.76 11.88,-37.92 0,-16.11 -3.96,-28.74 -11.88,-37.91 -7.92,-9.14 -18.82,-13.71 -32.7,-13.71 -13.94,0 -24.85,4.57 -32.75,13.71 -7.89,9.17 -11.84,21.8 -11.84,37.91 0,16.16 3.95,28.8 11.84,37.92 7.9,9.14 18.81,13.71 32.75,13.71"
         style="fill:#000000;fill-opacity:1;fill-rule:nonzero;stroke:none"
         id="path129" /><path
         d="m 1924.95,2224.32 v -28.16 h 32.85 v -11.73 h -32.85 v -53.75 c 0,-8.07 1.07,-13.25 3.23,-15.55 2.17,-2.3 6.58,-3.45 13.23,-3.45 h 16.39 v -14.07 h -16.39 c -12.44,0 -21.03,2.37 -25.77,7.11 -4.75,4.76 -7.12,13.42 -7.12,25.96 v 53.75 h -11.73 v 11.73 h 11.73 v 28.16 h 16.43"
         style="fill:#000000;fill-opacity:1;fill-rule:nonzero;stroke:none"
         id="path131" /><path
         d="m 2061.45,2157.96 v -60.35 h -16.42 v 59.84 c 0,9.01 -1.8,15.76 -5.39,20.23 -3.57,4.5 -8.94,6.75 -16.1,6.75 -8.6,0 -15.39,-2.72 -20.35,-8.14 -4.96,-5.4 -7.44,-12.79 -7.44,-22.15 v -56.53 h -16.43 v 136.1 h 16.43 v -51.63 c 3.84,5.5 8.36,9.61 13.56,12.32 5.21,2.74 11.21,4.11 18.01,4.11 11.24,0 19.73,-3.44 25.48,-10.3 5.77,-6.85 8.65,-16.93 8.65,-30.25"
         style="fill:#000000;fill-opacity:1;fill-rule:nonzero;stroke:none"
         id="path133" /><path
         d="m 2178.49,2151.87 v -7.33 h -75.09 c 0.71,-11.47 4.06,-20.21 10.05,-26.22 5.98,-5.99 14.32,-8.98 25,-8.98 6.21,0 12.23,0.78 18.04,2.34 5.82,1.57 11.59,3.91 17.31,7.04 v -14.08 c -5.77,-3.05 -11.69,-5.39 -17.75,-7 -6.03,-1.59 -12.16,-2.38 -18.37,-2.38 -15.59,0 -27.95,4.56 -37.07,13.67 -9.09,9.14 -13.64,21.5 -13.64,37.07 0,16.11 4.37,28.88 13.09,38.32 8.73,9.46 20.5,14.19 35.31,14.19 13.3,0 23.81,-4.18 31.54,-12.54 7.72,-8.36 11.58,-19.73 11.58,-34.1 m -16.42,4.4 c -0.12,8.55 -2.63,15.39 -7.52,20.5 -4.87,5.11 -11.31,7.66 -19.32,7.66 -9.1,0 -16.38,-2.47 -21.85,-7.41 -5.46,-4.93 -8.6,-11.89 -9.43,-20.86 l 58.12,0.11"
         style="fill:#000000;fill-opacity:1;fill-rule:nonzero;stroke:none"
         id="path135" /><path
         d="m 2306.27,2146.88 c -12.66,0 -21.44,-1.45 -26.33,-4.36 -4.89,-2.91 -7.33,-7.88 -7.33,-14.92 0,-5.6 1.83,-10.05 5.5,-13.35 3.66,-3.27 8.65,-4.91 14.96,-4.91 8.7,0 15.68,3.08 20.93,9.24 5.26,6.18 7.89,14.4 7.89,24.64 v 3.66 h -15.62 m 32.04,6.2 v -55.47 h -16.42 v 14.07 c -3.62,-5.62 -8.13,-9.76 -13.53,-12.43 -5.41,-2.66 -12.02,-3.99 -19.84,-3.99 -9.9,0 -17.77,2.76 -23.61,8.28 -5.82,5.55 -8.73,12.97 -8.73,22.26 0,10.85 3.66,19.03 10.96,24.53 7.31,5.53 18.23,8.29 32.75,8.29 h 22 v 1.76 c 0,7.65 -2.41,13.57 -7.23,17.75 -4.79,4.2 -11.52,6.3 -20.2,6.3 -5.53,0 -10.9,-0.59 -16.13,-1.76 -5.24,-1.17 -10.27,-2.93 -15.11,-5.28 v 14.08 c 5.84,2.35 11.51,4.11 17.01,5.28 5.53,1.17 10.89,1.76 16.1,1.76 14.08,0 24.59,-3.76 31.53,-11.3 6.97,-7.5 10.45,-18.88 10.45,-34.13"
         style="fill:#000000;fill-opacity:1;fill-rule:nonzero;stroke:none"
         id="path137" /><path
         d="m 2390.8,2111.68 v -51.62 h -16.43 v 136.1 h 16.43 v -14.08 c 3.33,5.55 7.53,9.67 12.61,12.36 5.09,2.71 11.16,4.07 18.23,4.07 11.73,0 21.25,-4.74 28.56,-14.22 7.33,-9.49 11,-21.96 11,-37.41 0,-15.45 -3.67,-27.91 -11,-37.4 -7.31,-9.48 -16.83,-14.22 -28.56,-14.22 -7.07,0 -13.14,1.34 -18.23,4.03 -5.08,2.71 -9.28,6.85 -12.61,12.39 m 53.97,35.2 c 0,11.71 -2.41,20.89 -7.22,27.54 -4.79,6.67 -11.38,10.01 -19.76,10.01 -8.39,0 -14.99,-3.34 -19.81,-10.01 -4.78,-6.65 -7.18,-15.83 -7.18,-27.54 0,-11.7 2.4,-20.9 7.18,-27.57 4.82,-6.65 11.42,-9.97 19.81,-9.97 8.38,0 14.97,3.32 19.76,9.97 4.81,6.67 7.22,15.87 7.22,27.57"
         style="fill:#000000;fill-opacity:1;fill-rule:nonzero;stroke:none"
         id="path139" /><path
         d="m 2506.2,2111.68 v -51.62 h -16.43 v 136.1 h 16.43 v -14.08 c 3.33,5.55 7.53,9.67 12.61,12.36 5.09,2.71 11.16,4.07 18.23,4.07 11.73,0 21.25,-4.74 28.56,-14.22 7.33,-9.49 11,-21.96 11,-37.41 0,-15.45 -3.67,-27.91 -11,-37.4 -7.31,-9.48 -16.83,-14.22 -28.56,-14.22 -7.07,0 -13.14,1.34 -18.23,4.03 -5.08,2.71 -9.28,6.85 -12.61,12.39 m 53.98,35.2 c 0,11.71 -2.41,20.89 -7.23,27.54 -4.79,6.67 -11.38,10.01 -19.76,10.01 -8.39,0 -14.99,-3.34 -19.8,-10.01 -4.79,-6.65 -7.19,-15.83 -7.19,-27.54 0,-11.7 2.4,-20.9 7.19,-27.57 4.81,-6.65 11.41,-9.97 19.8,-9.97 8.38,0 14.97,3.32 19.76,9.97 4.82,6.67 7.23,15.87 7.23,27.57"
         style="fill:#000000;fill-opacity:1;fill-rule:nonzero;stroke:none"
         id="path141" /><path
         d="m 2605.18,2097.61 h 16.4258 v 136.105 H 2605.18 Z"
         style="fill:#000000;fill-opacity:1;fill-rule:nonzero;stroke:none"
         id="path143" /><path
         d="m 2655.44,2196.16 h 16.43 v -98.55 h -16.43 v 98.55 m 0,37.55 h 16.43 v -21.12 h -16.43 v 21.12"
         style="fill:#000000;fill-opacity:1;fill-rule:nonzero;stroke:none"
         id="path145" /><path
         d="m 2776.11,2191.47 v -14.08 c -4.6,2.35 -9.21,4.11 -13.82,5.28 -4.6,1.17 -9.25,1.76 -13.94,1.76 -10.53,0 -18.71,-3.29 -24.53,-9.86 -5.82,-6.58 -8.73,-15.81 -8.73,-27.69 0,-11.88 2.91,-21.1 8.73,-27.68 5.82,-6.57 14,-9.86 24.53,-9.86 4.69,0 9.34,0.59 13.94,1.76 4.61,1.17 9.22,2.93 13.82,5.28 v -14.08 c -4.5,-2.35 -9.16,-4.11 -13.97,-5.28 -4.79,-1.18 -9.9,-1.76 -15.33,-1.76 -14.74,0 -26.45,4.64 -35.13,13.93 -8.67,9.31 -13.01,21.88 -13.01,37.69 0,16.04 4.38,28.65 13.16,37.84 8.78,9.19 20.79,13.79 36.05,13.79 4.96,0 9.8,-0.59 14.51,-1.76 4.72,-1.17 9.29,-2.93 13.72,-5.28"
         style="fill:#000000;fill-opacity:1;fill-rule:nonzero;stroke:none"
         id="path147" /><path
         d="m 2848.58,2146.88 c -12.66,0 -21.44,-1.45 -26.33,-4.36 -4.89,-2.91 -7.33,-7.88 -7.33,-14.92 0,-5.6 1.83,-10.05 5.5,-13.35 3.67,-3.27 8.65,-4.91 14.96,-4.91 8.7,0 15.68,3.08 20.94,9.24 5.25,6.18 7.88,14.4 7.88,24.64 v 3.66 h -15.62 m 32.05,6.2 v -55.47 h -16.43 v 14.07 c -3.62,-5.62 -8.13,-9.76 -13.53,-12.43 -5.4,-2.66 -12.01,-3.99 -19.84,-3.99 -9.9,0 -17.77,2.76 -23.61,8.28 -5.82,5.55 -8.73,12.97 -8.73,22.26 0,10.85 3.66,19.03 10.97,24.53 7.31,5.53 18.22,8.29 32.74,8.29 h 22 v 1.76 c 0,7.65 -2.41,13.57 -7.22,17.75 -4.79,4.2 -11.53,6.3 -20.21,6.3 -5.52,0 -10.9,-0.59 -16.13,-1.76 -5.23,-1.17 -10.26,-2.93 -15.1,-5.28 v 14.08 c 5.84,2.35 11.51,4.11 17.01,5.28 5.52,1.17 10.89,1.76 16.09,1.76 14.08,0 24.59,-3.76 31.54,-11.3 6.96,-7.5 10.45,-18.88 10.45,-34.13"
         style="fill:#000000;fill-opacity:1;fill-rule:nonzero;stroke:none"
         id="path149" /><path
         d="m 2933.11,2224.32 v -28.16 h 32.85 v -11.73 h -32.85 v -53.75 c 0,-8.07 1.08,-13.25 3.23,-15.55 2.18,-2.3 6.59,-3.45 13.24,-3.45 h 16.38 v -14.07 h -16.38 c -12.45,0 -21.04,2.37 -25.78,7.11 -4.74,4.76 -7.11,13.42 -7.11,25.96 v 53.75 h -11.74 v 11.73 h 11.74 v 28.16 h 16.42"
         style="fill:#000000;fill-opacity:1;fill-rule:nonzero;stroke:none"
         id="path151" /><path
         d="m 2987.48,2196.16 h 16.43 v -98.55 h -16.43 v 98.55 m 0,37.55 h 16.43 v -21.12 h -16.43 v 21.12"
         style="fill:#000000;fill-opacity:1;fill-rule:nonzero;stroke:none"
         id="path153" /><path
         d="m 3075.34,2184.43 c -8.71,0 -15.59,-3.35 -20.65,-10.05 -5.03,-6.69 -7.55,-15.86 -7.55,-27.5 0,-11.63 2.5,-20.8 7.51,-27.5 5.04,-6.69 11.93,-10.04 20.69,-10.04 8.65,0 15.49,3.36 20.53,10.08 5.06,6.72 7.59,15.88 7.59,27.46 0,11.54 -2.53,20.68 -7.59,27.43 -5.04,6.74 -11.88,10.12 -20.53,10.12 m -0.04,14.08 c 13.88,0 24.78,-4.57 32.7,-13.71 7.92,-9.12 11.88,-21.76 11.88,-37.92 0,-16.11 -3.96,-28.74 -11.88,-37.91 -7.92,-9.14 -18.82,-13.71 -32.7,-13.71 -13.94,0 -24.85,4.57 -32.75,13.71 -7.89,9.17 -11.84,21.8 -11.84,37.91 0,16.16 3.95,28.8 11.84,37.92 7.9,9.14 18.81,13.71 32.75,13.71"
         style="fill:#000000;fill-opacity:1;fill-rule:nonzero;stroke:none"
         id="path155" /><path
         d="m 3231.04,2157.96 v -60.35 h -16.43 v 59.84 c 0,9.01 -1.8,15.76 -5.39,20.23 -3.57,4.5 -8.93,6.75 -16.09,6.75 -8.61,0 -15.39,-2.72 -20.36,-8.14 -4.96,-5.4 -7.44,-12.79 -7.44,-22.15 v -56.53 h -16.42 v 98.55 h 16.42 v -14.08 c 3.84,5.5 8.36,9.61 13.57,12.32 5.21,2.74 11.21,4.11 18,4.11 11.24,0 19.74,-3.44 25.48,-10.3 5.77,-6.85 8.66,-16.93 8.66,-30.25"
         style="fill:#000000;fill-opacity:1;fill-rule:nonzero;stroke:none"
         id="path157" /><path
         d="m 3692.07,3266.88 c 175.64,-103.51 283.46,-292.19 283.46,-496.06 0,-161.47 -67.81,-315.53 -186.89,-424.59"
         style="fill:none;stroke:#000000;stroke-width:14.173;stroke-linecap:butt;stroke-linejoin:miter;stroke-miterlimit:10;stroke-dasharray:none;stroke-opacity:1"
         id="path159" /><path
         d="m 3705.72,2282.81 86.13,133.01 5.45,-79.04 66.5,-43.07"
         style="fill:#000000;fill-opacity:1;fill-rule:evenodd;stroke:none"
         id="path161" /><path
         d="m 3705.72,2282.81 86.13,133.01 5.45,-79.04 66.5,-43.07 z"
         style="fill:none;stroke:#000000;stroke-width:14.173;stroke-linecap:butt;stroke-linejoin:miter;stroke-miterlimit:10;stroke-dasharray:none;stroke-opacity:1"
         id="path163" /><path
         d="m 1707.85,2274.77 c -175.65,103.5 -283.46,292.18 -283.46,496.05 0,161.47 67.81,315.54 186.88,424.6"
         style="fill:none;stroke:#000000;stroke-width:14.173;stroke-linecap:butt;stroke-linejoin:miter;stroke-miterlimit:10;stroke-dasharray:none;stroke-opacity:1"
         id="path165" /><path
         d="m 1694.2,3258.83 -86.13,-133.01 -5.45,79.05 -66.51,43.06"
         style="fill:#000000;fill-opacity:1;fill-rule:evenodd;stroke:none"
         id="path167" /><path
         d="m 1694.2,3258.83 -86.13,-133.01 -5.45,79.05 -66.51,43.06 z"
         style="fill:none;stroke:#000000;stroke-width:14.173;stroke-linecap:butt;stroke-linejoin:miter;stroke-miterlimit:10;stroke-dasharray:none;stroke-opacity:1"
         id="path169" /><path
         d="M 2699.96,1991.3 V 1404.8"
         style="fill:none;stroke:#000000;stroke-width:14.173;stroke-linecap:butt;stroke-linejoin:miter;stroke-miterlimit:10;stroke-dasharray:none;stroke-opacity:1"
         id="path171" /><path
         d="m 2699.96,1298.5 -70.87,141.73 70.87,-35.43 70.86,35.43"
         style="fill:#000000;fill-opacity:1;fill-rule:evenodd;stroke:none"
         id="path173" /><path
         d="m 2699.96,1298.5 -70.87,141.73 70.87,-35.43 70.86,35.43 z"
         style="fill:none;stroke:#000000;stroke-width:14.173;stroke-linecap:butt;stroke-linejoin:miter;stroke-miterlimit:10;stroke-dasharray:none;stroke-opacity:1"
         id="path175" /><path
         d="m 2895.38,1725.92 v -16.42 c -6.65,3.15 -12.92,5.5 -18.81,7.04 -5.89,1.56 -11.59,2.34 -17.09,2.34 -9.53,0 -16.89,-1.81 -22.07,-5.43 -5.16,-3.61 -7.73,-8.76 -7.73,-15.43 0,-5.6 1.67,-9.83 5.02,-12.69 3.37,-2.83 9.75,-5.13 19.14,-6.89 l 10.34,-2.13 c 13.07,-2.49 22.72,-6.9 28.93,-13.24 6.21,-6.3 9.31,-14.76 9.31,-25.37 0,-12.64 -4.25,-22.22 -12.76,-28.74 -8.48,-6.51 -20.93,-9.76 -37.32,-9.76 -6.19,0 -12.78,0.78 -19.77,2.35 -6.96,1.59 -14.19,3.93 -21.67,7.04 v 18.77 c 7.16,-4.67 14.17,-8.19 21.01,-10.56 6.87,-2.34 13.62,-3.52 20.24,-3.52 10.07,0 17.83,2.02 23.28,6.05 5.48,4.04 8.22,9.78 8.22,17.24 0,6.5 -1.91,11.58 -5.72,15.25 -3.82,3.69 -10.07,6.45 -18.78,8.29 l -10.41,2.01 c -13.32,2.54 -22.97,6.53 -28.93,11.95 -5.94,5.46 -8.91,13.02 -8.91,22.7 0,11.22 4.08,20.06 12.25,26.51 8.19,6.45 19.46,9.68 33.8,9.68 6.16,0 12.43,-0.58 18.82,-1.76 6.4,-1.17 12.94,-2.93 19.61,-5.28"
         style="fill:#000000;fill-opacity:1;fill-rule:nonzero;stroke:none"
         id="path177" /><path
         d="m 2931,1700.11 h 16.42 v -98.56 H 2931 v 98.56 m 0,37.54 h 16.42 v -21.11 H 2931 v 21.11"
         style="fill:#000000;fill-opacity:1;fill-rule:nonzero;stroke:none"
         id="path179" /><path
         d="m 3044.62,1651.96 c 0,11.57 -2.37,20.52 -7.11,26.88 -4.72,6.36 -11.36,9.54 -19.91,9.54 -8.51,0 -15.13,-3.18 -19.87,-9.54 -4.72,-6.36 -7.08,-15.31 -7.08,-26.88 0,-11.51 2.36,-20.44 7.08,-26.8 4.74,-6.36 11.36,-9.53 19.87,-9.53 8.55,0 15.19,3.17 19.91,9.53 4.74,6.36 7.11,15.29 7.11,26.8 m 16.43,-37.69 c 0,-16.96 -3.68,-29.57 -11.04,-37.84 -7.33,-8.29 -18.56,-12.43 -33.69,-12.43 -5.63,0 -10.92,0.39 -15.88,1.18 -4.96,0.75 -9.79,1.93 -14.48,3.52 v 16.42 c 4.64,-2.39 9.22,-4.17 13.75,-5.32 4.54,-1.14 9.16,-1.72 13.86,-1.72 10.38,0 18.16,2.75 23.32,8.25 5.15,5.5 7.73,13.8 7.73,24.9 v 6.75 c -3.27,-5.5 -7.47,-9.62 -12.57,-12.36 -5.11,-2.71 -11.24,-4.07 -18.37,-4.07 -11.84,0 -21.37,4.59 -28.61,13.79 -7.23,9.21 -10.85,21.42 -10.85,36.62 0,15.26 3.62,27.48 10.85,36.67 7.24,9.22 16.77,13.82 28.61,13.82 7.13,0 13.26,-1.36 18.37,-4.1 5.1,-2.72 9.3,-6.82 12.57,-12.32 v 14.08 h 16.43 v -85.84"
         style="fill:#000000;fill-opacity:1;fill-rule:nonzero;stroke:none"
         id="path181" /><path
         d="m 3178.8,1661.9 v -60.35 h -16.43 v 59.84 c 0,9.02 -1.8,15.77 -5.39,20.24 -3.57,4.5 -8.93,6.75 -16.1,6.75 -8.6,0 -15.38,-2.72 -20.34,-8.15 -4.97,-5.4 -7.45,-12.78 -7.45,-22.14 v -56.54 h -16.43 v 98.56 h 16.43 v -14.08 c 3.84,5.5 8.36,9.6 13.57,12.32 5.2,2.74 11.2,4.1 18,4.1 11.24,0 19.74,-3.43 25.48,-10.3 5.77,-6.84 8.66,-16.93 8.66,-30.25"
         style="fill:#000000;fill-opacity:1;fill-rule:nonzero;stroke:none"
         id="path183" /><path
         d="m 3254.4,1650.83 c -12.66,0 -21.44,-1.45 -26.33,-4.37 -4.88,-2.91 -7.33,-7.88 -7.33,-14.92 0,-5.59 1.83,-10.04 5.5,-13.34 3.67,-3.28 8.65,-4.92 14.96,-4.92 8.71,0 15.68,3.08 20.94,9.24 5.25,6.19 7.88,14.4 7.88,24.64 v 3.67 h -15.62 m 32.05,6.19 v -55.47 h -16.43 v 14.08 c -3.61,-5.62 -8.13,-9.77 -13.53,-12.43 -5.4,-2.66 -12.01,-4 -19.83,-4 -9.9,0 -17.77,2.76 -23.62,8.29 -5.81,5.55 -8.72,12.97 -8.72,22.26 0,10.85 3.65,19.02 10.96,24.52 7.31,5.53 18.22,8.29 32.74,8.29 h 22 v 1.76 c 0,7.65 -2.41,13.57 -7.22,17.75 -4.79,4.2 -11.53,6.31 -20.2,6.31 -5.53,0 -10.9,-0.59 -16.14,-1.77 -5.23,-1.17 -10.26,-2.93 -15.1,-5.27 v 14.07 c 5.84,2.35 11.51,4.11 17.01,5.29 5.52,1.17 10.89,1.75 16.09,1.75 14.09,0 24.59,-3.76 31.54,-11.29 6.96,-7.5 10.45,-18.88 10.45,-34.14"
         style="fill:#000000;fill-opacity:1;fill-rule:nonzero;stroke:none"
         id="path185" /><path
         d="m 3322.51,1601.55 h 16.4258 v 136.102 H 3322.51 Z"
         style="fill:#000000;fill-opacity:1;fill-rule:nonzero;stroke:none"
         id="path187" /><path
         d="m 1707.85,999.195 h 1984.22 v 283.461 H 1707.85 Z"
         style="fill:#ffffff;fill-opacity:1;fill-rule:nonzero;stroke:none"
         id="path189" /><path
         d="m 1707.85,999.195 h 1984.22 v 283.461 H 1707.85 Z"
         style="fill:none;stroke:#000000;stroke-width:14.173;stroke-linecap:butt;stroke-linejoin:miter;stroke-miterlimit:10;stroke-dasharray:none;stroke-opacity:1"
         id="path191" /><path
         d="M 1847.98,1181.79 1824,1117 h 48.04 l -24.06,64.79 m -9.97,17.34 h 20.02 l 49.79,-129.07 h -18.37 l -11.91,32.85 h -58.85 l -11.92,-32.85 h -18.63 l 49.87,129.07"
         style="fill:#000000;fill-opacity:1;fill-rule:nonzero;stroke:none"
         id="path193" /><path
         d="m 1942.55,1084.14 v -51.62 h -16.43 v 136.1 h 16.43 v -14.08 c 3.33,5.55 7.53,9.67 12.61,12.36 5.09,2.71 11.16,4.07 18.23,4.07 11.73,0 21.25,-4.74 28.56,-14.23 7.33,-9.48 11,-21.95 11,-37.4 0,-15.45 -3.67,-27.91 -11,-37.4 -7.31,-9.48 -16.83,-14.23 -28.56,-14.23 -7.07,0 -13.14,1.35 -18.23,4.04 -5.08,2.71 -9.28,6.84 -12.61,12.39 m 53.97,35.2 c 0,11.71 -2.41,20.89 -7.22,27.54 -4.79,6.67 -11.38,10.01 -19.76,10.01 -8.39,0 -14.99,-3.34 -19.81,-10.01 -4.78,-6.65 -7.18,-15.83 -7.18,-27.54 0,-11.71 2.4,-20.9 7.18,-27.57 4.82,-6.65 11.42,-9.98 19.81,-9.98 8.38,0 14.97,3.33 19.76,9.98 4.81,6.67 7.22,15.86 7.22,27.57"
         style="fill:#000000;fill-opacity:1;fill-rule:nonzero;stroke:none"
         id="path195" /><path
         d="m 2057.95,1084.14 v -51.62 h -16.43 v 136.1 h 16.43 v -14.08 c 3.33,5.55 7.53,9.67 12.62,12.36 5.08,2.71 11.15,4.07 18.22,4.07 11.73,0 21.25,-4.74 28.56,-14.23 7.33,-9.48 11,-21.95 11,-37.4 0,-15.45 -3.67,-27.91 -11,-37.4 -7.31,-9.48 -16.83,-14.23 -28.56,-14.23 -7.07,0 -13.14,1.35 -18.22,4.04 -5.09,2.71 -9.29,6.84 -12.62,12.39 m 53.98,35.2 c 0,11.71 -2.41,20.89 -7.23,27.54 -4.79,6.67 -11.38,10.01 -19.76,10.01 -8.39,0 -14.99,-3.34 -19.8,-10.01 -4.79,-6.65 -7.19,-15.83 -7.19,-27.54 0,-11.71 2.4,-20.9 7.19,-27.57 4.81,-6.65 11.41,-9.98 19.8,-9.98 8.38,0 14.97,3.33 19.76,9.98 4.82,6.67 7.23,15.86 7.23,27.57"
         style="fill:#000000;fill-opacity:1;fill-rule:nonzero;stroke:none"
         id="path197" /><path
         d="m 2156.93,1070.06 h 16.4258 v 136.105 H 2156.93 Z"
         style="fill:#000000;fill-opacity:1;fill-rule:nonzero;stroke:none"
         id="path199" /><path
         d="m 2207.19,1168.62 h 16.43 v -98.56 h -16.43 v 98.56 m 0,37.55 h 16.43 v -21.12 h -16.43 v 21.12"
         style="fill:#000000;fill-opacity:1;fill-rule:nonzero;stroke:none"
         id="path201" /><path
         d="m 2327.86,1163.93 v -14.08 c -4.6,2.35 -9.21,4.1 -13.82,5.28 -4.6,1.17 -9.25,1.76 -13.94,1.76 -10.53,0 -18.71,-3.29 -24.53,-9.87 -5.82,-6.57 -8.73,-15.8 -8.73,-27.68 0,-11.88 2.91,-21.11 8.73,-27.68 5.82,-6.58 14,-9.87 24.53,-9.87 4.69,0 9.34,0.59 13.94,1.76 4.61,1.18 9.22,2.94 13.82,5.29 v -14.09 c -4.5,-2.34 -9.16,-4.1 -13.97,-5.27 -4.79,-1.18 -9.9,-1.77 -15.33,-1.77 -14.74,0 -26.45,4.65 -35.13,13.94 -8.67,9.31 -13.01,21.88 -13.01,37.69 0,16.04 4.38,28.65 13.16,37.84 8.78,9.19 20.79,13.79 36.05,13.79 4.96,0 9.8,-0.59 14.51,-1.76 4.72,-1.17 9.29,-2.94 13.72,-5.28"
         style="fill:#000000;fill-opacity:1;fill-rule:nonzero;stroke:none"
         id="path203" /><path
         d="m 2400.33,1119.34 c -12.66,0 -21.44,-1.45 -26.33,-4.36 -4.89,-2.91 -7.33,-7.89 -7.33,-14.93 0,-5.59 1.83,-10.04 5.5,-13.34 3.67,-3.28 8.65,-4.92 14.96,-4.92 8.7,0 15.68,3.09 20.94,9.25 5.25,6.18 7.88,14.39 7.88,24.64 v 3.66 h -15.62 m 32.05,6.2 v -55.48 h -16.43 v 14.08 c -3.62,-5.62 -8.13,-9.76 -13.53,-12.43 -5.4,-2.66 -12.01,-4 -19.84,-4 -9.9,0 -17.77,2.77 -23.61,8.29 -5.82,5.55 -8.73,12.97 -8.73,22.26 0,10.85 3.66,19.03 10.97,24.53 7.31,5.52 18.22,8.28 32.74,8.28 h 22 v 1.77 c 0,7.64 -2.41,13.56 -7.22,17.74 -4.79,4.21 -11.53,6.31 -20.21,6.31 -5.52,0 -10.9,-0.59 -16.13,-1.76 -5.23,-1.18 -10.26,-2.93 -15.1,-5.28 v 14.08 c 5.84,2.34 11.51,4.11 17.01,5.28 5.52,1.17 10.89,1.76 16.09,1.76 14.08,0 24.59,-3.77 31.54,-11.3 6.96,-7.5 10.45,-18.88 10.45,-34.13"
         style="fill:#000000;fill-opacity:1;fill-rule:nonzero;stroke:none"
         id="path205" /><path
         d="m 2484.86,1196.78 v -28.16 h 32.85 v -11.73 h -32.85 v -53.76 c 0,-8.06 1.08,-13.24 3.23,-15.54 2.18,-2.3 6.59,-3.45 13.24,-3.45 h 16.38 v -14.08 h -16.38 c -12.45,0 -21.04,2.37 -25.78,7.12 -4.74,4.76 -7.11,13.41 -7.11,25.95 v 53.76 h -11.74 v 11.73 h 11.74 v 28.16 h 16.42"
         style="fill:#000000;fill-opacity:1;fill-rule:nonzero;stroke:none"
         id="path207" /><path
         d="m 2539.23,1168.62 h 16.43 v -98.56 h -16.43 v 98.56 m 0,37.55 h 16.43 v -21.12 h -16.43 v 21.12"
         style="fill:#000000;fill-opacity:1;fill-rule:nonzero;stroke:none"
         id="path209" /><path
         d="m 2627.09,1156.89 c -8.71,0 -15.59,-3.35 -20.65,-10.05 -5.03,-6.7 -7.55,-15.86 -7.55,-27.5 0,-11.63 2.5,-20.8 7.51,-27.5 5.04,-6.7 11.93,-10.05 20.69,-10.05 8.65,0 15.49,3.37 20.53,10.09 5.06,6.72 7.59,15.87 7.59,27.46 0,11.54 -2.53,20.68 -7.59,27.43 -5.04,6.75 -11.88,10.12 -20.53,10.12 m -0.04,14.08 c 13.88,0 24.78,-4.58 32.7,-13.72 7.92,-9.11 11.88,-21.75 11.88,-37.91 0,-16.11 -3.96,-28.75 -11.88,-37.91 -7.92,-9.14 -18.82,-13.72 -32.7,-13.72 -13.94,0 -24.85,4.58 -32.75,13.72 -7.89,9.16 -11.84,21.8 -11.84,37.91 0,16.16 3.95,28.8 11.84,37.91 7.9,9.14 18.81,13.72 32.75,13.72"
         style="fill:#000000;fill-opacity:1;fill-rule:nonzero;stroke:none"
         id="path211" /><path
         d="m 2782.79,1130.41 v -60.35 h -16.43 v 59.84 c 0,9.02 -1.8,15.77 -5.39,20.24 -3.57,4.5 -8.93,6.75 -16.09,6.75 -8.61,0 -15.39,-2.71 -20.36,-8.14 -4.96,-5.41 -7.44,-12.79 -7.44,-22.15 v -56.54 h -16.42 v 98.56 h 16.42 v -14.08 c 3.84,5.5 8.36,9.61 13.57,12.32 5.21,2.74 11.21,4.11 18,4.11 11.24,0 19.74,-3.44 25.48,-10.31 5.77,-6.84 8.66,-16.93 8.66,-30.25"
         style="fill:#000000;fill-opacity:1;fill-rule:nonzero;stroke:none"
         id="path213" /><path
         d="m 2943.09,1163.93 v -14.08 c -4.59,2.35 -9.2,4.1 -13.82,5.28 -4.6,1.17 -9.24,1.76 -13.93,1.76 -10.54,0 -18.72,-3.29 -24.54,-9.87 -5.81,-6.57 -8.72,-15.8 -8.72,-27.68 0,-11.88 2.91,-21.11 8.72,-27.68 5.82,-6.58 14,-9.87 24.54,-9.87 4.69,0 9.33,0.59 13.93,1.76 4.62,1.18 9.23,2.94 13.82,5.29 v -14.09 c -4.5,-2.34 -9.15,-4.1 -13.97,-5.27 -4.79,-1.18 -9.9,-1.77 -15.32,-1.77 -14.75,0 -26.45,4.65 -35.13,13.94 -8.68,9.31 -13.02,21.88 -13.02,37.69 0,16.04 4.39,28.65 13.17,37.84 8.77,9.19 20.79,13.79 36.04,13.79 4.96,0 9.8,-0.59 14.52,-1.76 4.72,-1.17 9.29,-2.94 13.71,-5.28"
         style="fill:#000000;fill-opacity:1;fill-rule:nonzero;stroke:none"
         id="path215" /><path
         d="m 3015.56,1119.34 c -12.66,0 -21.43,-1.45 -26.32,-4.36 -4.89,-2.91 -7.33,-7.89 -7.33,-14.93 0,-5.59 1.83,-10.04 5.5,-13.34 3.66,-3.28 8.65,-4.92 14.95,-4.92 8.71,0 15.69,3.09 20.94,9.25 5.25,6.18 7.88,14.39 7.88,24.64 v 3.66 h -15.62 m 32.05,6.2 v -55.48 h -16.43 v 14.08 c -3.61,-5.62 -8.13,-9.76 -13.52,-12.43 -5.41,-2.66 -12.02,-4 -19.84,-4 -9.9,0 -17.77,2.77 -23.62,8.29 -5.81,5.55 -8.72,12.97 -8.72,22.26 0,10.85 3.65,19.03 10.96,24.53 7.31,5.52 18.22,8.28 32.74,8.28 h 22 v 1.77 c 0,7.64 -2.4,13.56 -7.22,17.74 -4.79,4.21 -11.52,6.31 -20.2,6.31 -5.53,0 -10.9,-0.59 -16.13,-1.76 -5.24,-1.18 -10.27,-2.93 -15.11,-5.28 v 14.08 c 5.84,2.34 11.51,4.11 17.01,5.28 5.52,1.17 10.89,1.76 16.1,1.76 14.08,0 24.59,-3.77 31.53,-11.3 6.97,-7.5 10.45,-18.88 10.45,-34.13"
         style="fill:#000000;fill-opacity:1;fill-rule:nonzero;stroke:none"
         id="path217" /><path
         d="m 3083.67,1070.06 h 16.4258 v 136.105 H 3083.67 Z"
         style="fill:#000000;fill-opacity:1;fill-rule:nonzero;stroke:none"
         id="path219" /><path
         d="m 3133.94,1070.06 h 16.4258 v 136.105 H 3133.94 Z"
         style="fill:#000000;fill-opacity:1;fill-rule:nonzero;stroke:none"
         id="path221" /><path
         d="m 3254.6,1119.34 c 0,11.71 -2.4,20.89 -7.22,27.54 -4.79,6.67 -11.38,10.01 -19.77,10.01 -8.38,0 -14.98,-3.34 -19.79,-10.01 -4.8,-6.65 -7.19,-15.83 -7.19,-27.54 0,-11.71 2.39,-20.9 7.19,-27.57 4.81,-6.65 11.41,-9.98 19.79,-9.98 8.39,0 14.98,3.33 19.77,9.98 4.82,6.67 7.22,15.86 7.22,27.57 m -53.97,35.2 c 3.32,5.55 7.53,9.67 12.61,12.36 5.09,2.71 11.16,4.07 18.22,4.07 11.74,0 21.26,-4.74 28.57,-14.23 7.33,-9.48 11,-21.95 11,-37.4 0,-15.45 -3.67,-27.91 -11,-37.4 -7.31,-9.48 -16.83,-14.23 -28.57,-14.23 -7.06,0 -13.13,1.35 -18.22,4.04 -5.08,2.71 -9.29,6.84 -12.61,12.39 v -14.08 h -16.43 v 136.11 h 16.43 v -51.63"
         style="fill:#000000;fill-opacity:1;fill-rule:nonzero;stroke:none"
         id="path223" /><path
         d="m 3342.65,1119.34 c -12.66,0 -21.44,-1.45 -26.33,-4.36 -4.89,-2.91 -7.33,-7.89 -7.33,-14.93 0,-5.59 1.83,-10.04 5.5,-13.34 3.67,-3.28 8.65,-4.92 14.96,-4.92 8.7,0 15.68,3.09 20.94,9.25 5.25,6.18 7.88,14.39 7.88,24.64 v 3.66 h -15.62 m 32.05,6.2 v -55.48 h -16.43 v 14.08 c -3.62,-5.62 -8.13,-9.76 -13.53,-12.43 -5.4,-2.66 -12.01,-4 -19.84,-4 -9.9,0 -17.77,2.77 -23.61,8.29 -5.82,5.55 -8.73,12.97 -8.73,22.26 0,10.85 3.66,19.03 10.97,24.53 7.31,5.52 18.22,8.28 32.74,8.28 h 22 v 1.77 c 0,7.64 -2.41,13.56 -7.22,17.74 -4.8,4.21 -11.53,6.31 -20.21,6.31 -5.52,0 -10.9,-0.59 -16.13,-1.76 -5.23,-1.18 -10.26,-2.93 -15.1,-5.28 v 14.08 c 5.84,2.34 11.51,4.11 17.01,5.28 5.52,1.17 10.89,1.76 16.09,1.76 14.08,0 24.59,-3.77 31.54,-11.3 6.96,-7.5 10.45,-18.88 10.45,-34.13"
         style="fill:#000000;fill-opacity:1;fill-rule:nonzero;stroke:none"
         id="path225" /><path
         d="m 3481.16,1163.93 v -14.08 c -4.6,2.35 -9.21,4.1 -13.83,5.28 -4.59,1.17 -9.24,1.76 -13.93,1.76 -10.54,0 -18.71,-3.29 -24.53,-9.87 -5.82,-6.57 -8.73,-15.8 -8.73,-27.68 0,-11.88 2.91,-21.11 8.73,-27.68 5.82,-6.58 13.99,-9.87 24.53,-9.87 4.69,0 9.34,0.59 13.93,1.76 4.62,1.18 9.23,2.94 13.83,5.29 v -14.09 c -4.5,-2.34 -9.16,-4.1 -13.97,-5.27 -4.8,-1.18 -9.9,-1.77 -15.33,-1.77 -14.74,0 -26.45,4.65 -35.13,13.94 -8.68,9.31 -13.01,21.88 -13.01,37.69 0,16.04 4.39,28.65 13.16,37.84 8.78,9.19 20.79,13.79 36.04,13.79 4.97,0 9.81,-0.59 14.52,-1.76 4.72,-1.17 9.29,-2.94 13.72,-5.28"
         style="fill:#000000;fill-opacity:1;fill-rule:nonzero;stroke:none"
         id="path227" /><path
         d="m 3510.58,1206.17 h 16.43 v -80.04 l 47.67,42.49 h 20.38 l -51.55,-46.12 53.9,-52.44 h -20.9 l -49.5,48.14 v -48.14 h -16.43 v 136.11"
         style="fill:#000000;fill-opacity:1;fill-rule:nonzero;stroke:none"
         id="path229" /><path
         d="M 2699.96,999.195 V 696.148"
         style="fill:none;stroke:#000000;stroke-width:14.173;stroke-linecap:butt;stroke-linejoin:miter;stroke-miterlimit:10;stroke-dasharray:none;stroke-opacity:1"
         id="path231" /><path
         d="m 2699.96,589.852 -70.87,141.73 70.87,-35.434 70.86,35.434"
         style="fill:#000000;fill-opacity:1;fill-rule:evenodd;stroke:none"
         id="path233" /><path
         d="m 2699.96,589.852 -70.87,141.73 70.87,-35.434 70.86,35.434 z"
         style="fill:none;stroke:#000000;stroke-width:14.173;stroke-linecap:butt;stroke-linejoin:miter;stroke-miterlimit:10;stroke-dasharray:none;stroke-opacity:1"
         id="path235" /><path
         d="m 1707.85,7.08594 h 1984.22 v 566.922 H 1707.85 Z"
         style="fill:#ffffff;fill-opacity:1;fill-rule:nonzero;stroke:none"
         id="path237" /><path
         d="m 1707.85,7.08594 h 1984.22 v 566.922 H 1707.85 Z"
         style="fill:none;stroke:#000000;stroke-width:14.173;stroke-linecap:butt;stroke-linejoin:miter;stroke-miterlimit:10;stroke-dasharray:none;stroke-opacity:1"
         id="path239" /><path
         d="M 1934.38,462.223 V 361.316 h 21.12 c 17.85,0 30.91,4.059 39.2,12.176 8.28,8.113 12.43,20.922 12.43,38.426 0,17.379 -4.15,30.102 -12.43,38.168 -8.29,8.094 -21.35,12.137 -39.2,12.137 h -21.12 m -18.77,14.082 h 37.21 c 25.18,0 43.65,-5.207 55.41,-15.621 11.78,-10.387 17.67,-26.645 17.67,-48.766 0,-22.27 -5.92,-38.621 -17.74,-49.059 -11.84,-10.414 -30.28,-15.621 -55.34,-15.621 h -37.21 v 129.067"
         style="fill:#000000;fill-opacity:1;fill-rule:nonzero;stroke:none"
         id="path241" /><path
         d="m 2092.66,434.063 c -8.7,0 -15.58,-3.348 -20.64,-10.047 -5.04,-6.696 -7.55,-15.864 -7.55,-27.496 0,-11.637 2.5,-20.805 7.51,-27.5 5.04,-6.7 11.93,-10.047 20.68,-10.047 8.66,0 15.5,3.359 20.54,10.082 5.06,6.722 7.59,15.875 7.59,27.465 0,11.535 -2.53,20.679 -7.59,27.425 -5.04,6.746 -11.88,10.118 -20.54,10.118 m -0.03,14.082 c 13.88,0 24.78,-4.571 32.7,-13.715 7.92,-9.117 11.88,-21.754 11.88,-37.91 0,-16.11 -3.96,-28.75 -11.88,-37.915 -7.92,-9.144 -18.82,-13.714 -32.7,-13.714 -13.93,0 -24.85,4.57 -32.75,13.714 -7.89,9.165 -11.84,21.805 -11.84,37.915 0,16.156 3.95,28.793 11.84,37.91 7.9,9.144 18.82,13.715 32.75,13.715"
         style="fill:#000000;fill-opacity:1;fill-rule:nonzero;stroke:none"
         id="path243" /><path
         d="m 2284.59,441.105 v -14.082 c -4.4,2.348 -8.97,4.106 -13.71,5.282 -4.74,1.172 -9.66,1.758 -14.74,1.758 -7.73,0 -13.52,-1.208 -17.38,-3.629 -3.86,-2.418 -5.8,-6.051 -5.8,-10.891 0,-3.691 1.35,-6.586 4.04,-8.688 2.71,-2.101 8.16,-4.109 16.35,-6.015 l 5.25,-1.207 c 11.1,-2.445 18.98,-5.906 23.65,-10.379 4.69,-4.473 7.04,-10.719 7.04,-18.734 0,-9.122 -3.5,-16.344 -10.49,-21.672 -6.99,-5.305 -16.61,-7.957 -28.86,-7.957 -5.11,0 -10.42,0.586 -15.95,1.761 -5.52,1.172 -11.34,2.934 -17.45,5.278 v 16.429 c 5.75,-3.129 11.4,-5.476 16.98,-7.043 5.57,-1.562 11.08,-2.343 16.53,-2.343 7.34,0 12.97,1.281 16.91,3.847 3.93,2.594 5.9,6.223 5.9,10.891 0,4.352 -1.4,7.676 -4.18,9.973 -2.79,2.324 -8.91,4.558 -18.37,6.711 l -5.32,1.285 c -10.04,2.101 -17.3,5.328 -21.78,9.679 -4.44,4.348 -6.67,10.313 -6.67,17.891 0,9.215 3.23,16.328 9.68,21.34 6.45,5.035 15.61,7.555 27.46,7.555 5.87,0 11.39,-0.586 16.58,-1.762 5.18,-1.172 9.96,-2.934 14.33,-5.278"
         style="fill:#000000;fill-opacity:1;fill-rule:nonzero;stroke:none"
         id="path245" /><path
         d="m 2355.32,434.063 c -8.7,0 -15.58,-3.348 -20.64,-10.047 -5.04,-6.696 -7.55,-15.864 -7.55,-27.496 0,-11.637 2.5,-20.805 7.51,-27.5 5.04,-6.7 11.93,-10.047 20.68,-10.047 8.66,0 15.5,3.359 20.54,10.082 5.06,6.722 7.59,15.875 7.59,27.465 0,11.535 -2.53,20.679 -7.59,27.425 -5.04,6.746 -11.88,10.118 -20.54,10.118 m -0.03,14.082 c 13.88,0 24.78,-4.571 32.7,-13.715 7.92,-9.117 11.88,-21.754 11.88,-37.91 0,-16.11 -3.96,-28.75 -11.88,-37.915 -7.92,-9.144 -18.82,-13.714 -32.7,-13.714 -13.94,0 -24.85,4.57 -32.75,13.714 -7.89,9.165 -11.84,21.805 -11.84,37.915 0,16.156 3.95,28.793 11.84,37.91 7.9,9.144 18.81,13.715 32.75,13.715"
         style="fill:#000000;fill-opacity:1;fill-rule:nonzero;stroke:none"
         id="path247" /><path
         d="m 2505.93,428.051 c 4.03,6.867 8.84,11.929 14.41,15.179 5.6,3.278 12.2,4.915 19.8,4.915 10.19,0 18.05,-3.52 23.57,-10.559 5.56,-7.016 8.33,-17.016 8.33,-29.996 v -60.352 h -16.43 v 59.84 c 0,9.141 -1.65,15.926 -4.95,20.348 -3.3,4.426 -8.34,6.637 -15.14,6.637 -8.29,0 -14.84,-2.711 -19.65,-8.137 -4.8,-5.403 -7.19,-12.785 -7.19,-22.149 v -56.539 h -16.43 v 59.84 c 0,9.192 -1.65,15.985 -4.95,20.387 -3.3,4.398 -8.39,6.598 -15.29,6.598 -8.19,0 -14.69,-2.723 -19.5,-8.176 -4.8,-5.449 -7.19,-12.821 -7.19,-22.11 v -56.539 h -16.43 v 98.559 h 16.43 v -14.078 c 3.67,5.621 8.06,9.765 13.16,12.429 5.14,2.665 11.22,3.997 18.26,3.997 7.12,0 13.15,-1.723 18.12,-5.172 4.98,-3.422 8.68,-8.395 11.07,-14.922"
         style="fill:#000000;fill-opacity:1;fill-rule:nonzero;stroke:none"
         id="path249" /><path
         d="m 2689.66,401.504 v -7.332 h -75.09 c 0.71,-11.465 4.06,-20.203 10.04,-26.219 5.99,-5.988 14.33,-8.98 25.01,-8.98 6.21,0 12.22,0.781 18.04,2.343 5.82,1.567 11.59,3.914 17.3,7.043 v -14.082 c -5.76,-3.054 -11.68,-5.39 -17.74,-7.004 -6.04,-1.585 -12.16,-2.382 -18.37,-2.382 -15.6,0 -27.95,4.558 -37.07,13.675 -9.09,9.145 -13.64,21.5 -13.64,37.071 0,16.109 4.36,28.883 13.09,38.316 8.73,9.461 20.5,14.192 35.31,14.192 13.3,0 23.81,-4.18 31.53,-12.54 7.73,-8.359 11.59,-19.726 11.59,-34.101 m -16.43,4.402 c -0.12,8.555 -2.62,15.387 -7.52,20.496 -4.86,5.106 -11.3,7.661 -19.32,7.661 -9.09,0 -16.37,-2.469 -21.85,-7.407 -5.45,-4.937 -8.59,-11.89 -9.42,-20.863 l 58.11,0.113"
         style="fill:#000000;fill-opacity:1;fill-rule:nonzero;stroke:none"
         id="path251" /><path
         d="m 2765,445.797 h 16.1 l 20.09,-76.926 20.02,76.926 h 18.99 l 20.1,-76.926 20.02,76.926 h 16.09 l -25.63,-98.559 h -18.95 l -21.09,80.778 -21.15,-80.778 h -18.96 L 2765,445.797"
         style="fill:#000000;fill-opacity:1;fill-rule:nonzero;stroke:none"
         id="path253" /><path
         d="m 2959.94,434.063 c -8.71,0 -15.58,-3.348 -20.65,-10.047 -5.03,-6.696 -7.55,-15.864 -7.55,-27.496 0,-11.637 2.51,-20.805 7.52,-27.5 5.03,-6.7 11.93,-10.047 20.68,-10.047 8.65,0 15.49,3.359 20.53,10.082 5.06,6.722 7.59,15.875 7.59,27.465 0,11.535 -2.53,20.679 -7.59,27.425 -5.04,6.746 -11.88,10.118 -20.53,10.118 m -0.04,14.082 c 13.89,0 24.79,-4.571 32.71,-13.715 7.92,-9.117 11.88,-21.754 11.88,-37.91 0,-16.11 -3.96,-28.75 -11.88,-37.915 -7.92,-9.144 -18.82,-13.714 -32.71,-13.714 -13.93,0 -24.85,4.57 -32.74,13.714 -7.9,9.165 -11.84,21.805 -11.84,37.915 0,16.156 3.94,28.793 11.84,37.91 7.89,9.144 18.81,13.715 32.74,13.715"
         style="fill:#000000;fill-opacity:1;fill-rule:nonzero;stroke:none"
         id="path255" /><path
         d="m 3089.83,431.719 c -1.76,0.804 -3.67,1.39 -5.72,1.758 -2.06,0.39 -4.33,0.586 -6.82,0.586 -8.8,0 -15.56,-2.946 -20.28,-8.836 -4.72,-5.868 -7.08,-14.301 -7.08,-25.297 v -52.692 h -16.42 v 98.559 h 16.42 v -14.078 c 3.28,5.547 7.55,9.668 12.8,12.355 5.26,2.715 11.64,4.071 19.14,4.071 1.08,0 2.26,0 3.56,0 1.29,0 2.73,0 4.32,0 l 0.08,-16.426"
         style="fill:#000000;fill-opacity:1;fill-rule:nonzero;stroke:none"
         id="path257" /><path
         d="m 3107.85,483.344 h 16.42 v -80.043 l 47.67,42.496 h 20.38 l -51.55,-46.125 53.9,-52.434 h -20.9 l -49.5,48.145 v -48.145 h -16.42 v 136.106"
         style="fill:#000000;fill-opacity:1;fill-rule:nonzero;stroke:none"
         id="path259" /><path
         d="m 3307.55,434.063 c -8.7,0 -15.58,-3.348 -20.64,-10.047 -5.03,-6.696 -7.55,-15.864 -7.55,-27.496 0,-11.637 2.5,-20.805 7.52,-27.5 5.03,-6.7 11.92,-10.047 20.67,-10.047 8.66,0 15.5,3.359 20.54,10.082 5.06,6.722 7.59,15.875 7.59,27.465 0,11.535 -2.53,20.679 -7.59,27.425 -5.04,6.746 -11.88,10.118 -20.54,10.118 m -0.03,14.082 c 13.88,0 24.78,-4.571 32.71,-13.715 7.91,-9.117 11.88,-21.754 11.88,-37.91 0,-16.11 -3.97,-28.75 -11.88,-37.915 -7.93,-9.144 -18.83,-13.714 -32.71,-13.714 -13.93,0 -24.85,4.57 -32.74,13.714 -7.9,9.165 -11.85,21.805 -11.85,37.915 0,16.156 3.95,28.793 11.85,37.91 7.89,9.144 18.81,13.715 32.74,13.715"
         style="fill:#000000;fill-opacity:1;fill-rule:nonzero;stroke:none"
         id="path261" /><path
         d="m 3463.26,407.59 v -60.352 h -16.43 v 59.84 c 0,9.02 -1.79,15.766 -5.39,20.238 -3.57,4.5 -8.93,6.747 -16.1,6.747 -8.6,0 -15.38,-2.711 -20.34,-8.137 -4.97,-5.403 -7.45,-12.785 -7.45,-22.149 v -56.539 h -16.42 v 98.559 h 16.42 v -14.078 c 3.84,5.5 8.36,9.605 13.57,12.32 5.2,2.734 11.2,4.106 18,4.106 11.25,0 19.74,-3.434 25.49,-10.305 5.77,-6.844 8.65,-16.926 8.65,-30.25"
         style="fill:#000000;fill-opacity:1;fill-rule:nonzero;stroke:none"
         id="path263" /><path
         d="m 1932.04,247.188 v -28.161 h 32.85 v -11.73 h -32.85 v -53.754 c 0,-8.066 1.07,-13.25 3.22,-15.547 2.18,-2.297 6.59,-3.445 13.24,-3.445 h 16.39 v -14.082 h -16.39 c -12.45,0 -21.04,2.371 -25.78,7.113 -4.74,4.77 -7.11,13.422 -7.11,25.961 v 53.754 h -11.73 v 11.73 h 11.73 v 28.161 h 16.43"
         style="fill:#000000;fill-opacity:1;fill-rule:nonzero;stroke:none"
         id="path265" /><path
         d="m 2068.54,180.824 v -60.355 h -16.43 v 59.84 c 0,9.019 -1.79,15.765 -5.39,20.242 -3.56,4.496 -8.93,6.746 -16.09,6.746 -8.61,0 -15.39,-2.715 -20.35,-8.141 -4.96,-5.402 -7.44,-12.785 -7.44,-22.148 v -56.539 h -16.43 v 136.105 h 16.43 v -51.625 c 3.83,5.5 8.36,9.606 13.56,12.321 5.21,2.738 11.21,4.105 18,4.105 11.25,0 19.74,-3.434 25.49,-10.301 5.77,-6.847 8.65,-16.929 8.65,-30.25"
         style="fill:#000000;fill-opacity:1;fill-rule:nonzero;stroke:none"
         id="path267" /><path
         d="m 2185.58,174.738 v -7.336 h -75.1 c 0.72,-11.464 4.06,-20.203 10.05,-26.214 5.99,-5.989 14.33,-8.985 25.01,-8.985 6.21,0 12.22,0.781 18.04,2.348 5.82,1.562 11.58,3.91 17.31,7.039 v -14.078 c -5.77,-3.059 -11.69,-5.391 -17.75,-7.004 -6.04,-1.59 -12.16,-2.383 -18.37,-2.383 -15.59,0 -27.95,4.559 -37.07,13.676 -9.09,9.14 -13.64,21.496 -13.64,37.07 0,16.106 4.36,28.879 13.09,38.317 8.73,9.457 20.49,14.187 35.31,14.187 13.3,0 23.81,-4.18 31.53,-12.539 7.72,-8.359 11.59,-19.727 11.59,-34.098 m -16.43,4.399 c -0.12,8.554 -2.63,15.386 -7.51,20.496 -4.87,5.109 -11.31,7.664 -19.33,7.664 -9.09,0 -16.38,-2.469 -21.85,-7.406 -5.45,-4.938 -8.59,-11.895 -9.42,-20.864 l 58.11,0.11"
         style="fill:#000000;fill-opacity:1;fill-rule:nonzero;stroke:none"
         id="path269" /><path
         d="m 2331.32,214.336 v -14.078 c -4.4,2.344 -8.97,4.105 -13.71,5.277 -4.75,1.176 -9.66,1.762 -14.74,1.762 -7.73,0 -13.52,-1.211 -17.38,-3.629 -3.86,-2.422 -5.8,-6.051 -5.8,-10.891 0,-3.691 1.35,-6.589 4.04,-8.691 2.71,-2.102 8.16,-4.106 16.35,-6.012 l 5.24,-1.211 c 11.1,-2.445 18.98,-5.902 23.65,-10.375 4.69,-4.476 7.04,-10.718 7.04,-18.738 0,-9.117 -3.49,-16.34 -10.48,-21.668 -6.99,-5.305 -16.61,-7.957 -28.86,-7.957 -5.11,0 -10.43,0.586 -15.95,1.758 -5.52,1.176 -11.34,2.933 -17.45,5.281 v 16.426 c 5.74,-3.129 11.4,-5.477 16.97,-7.039 5.58,-1.567 11.09,-2.348 16.54,-2.348 7.33,0 12.97,1.285 16.9,3.852 3.94,2.59 5.91,6.218 5.91,10.886 0,4.352 -1.4,7.676 -4.18,9.977 -2.79,2.32 -8.91,4.559 -18.37,6.707 l -5.32,1.285 c -10.05,2.102 -17.31,5.328 -21.78,9.68 -4.45,4.351 -6.67,10.316 -6.67,17.894 0,9.215 3.22,16.329 9.68,21.34 6.45,5.035 15.6,7.551 27.46,7.551 5.87,0 11.39,-0.586 16.57,-1.758 5.18,-1.176 9.97,-2.933 14.34,-5.281"
         style="fill:#000000;fill-opacity:1;fill-rule:nonzero;stroke:none"
         id="path271" /><path
         d="m 2407.51,169.75 c -12.66,0 -21.44,-1.453 -26.32,-4.363 -4.89,-2.91 -7.33,-7.883 -7.33,-14.922 0,-5.598 1.83,-10.047 5.5,-13.348 3.66,-3.277 8.65,-4.914 14.95,-4.914 8.71,0 15.69,3.082 20.94,9.238 5.25,6.188 7.88,14.399 7.88,24.641 v 3.668 h -15.62 m 32.05,6.195 v -55.476 h -16.43 v 14.082 c -3.61,-5.621 -8.13,-9.766 -13.53,-12.43 -5.4,-2.664 -12.01,-3.996 -19.83,-3.996 -9.9,0 -17.77,2.762 -23.62,8.285 -5.81,5.551 -8.72,12.969 -8.72,22.258 0,10.852 3.65,19.027 10.96,24.527 7.31,5.528 18.22,8.289 32.74,8.289 h 22 v 1.758 c 0,7.653 -2.4,13.567 -7.22,17.746 -4.79,4.207 -11.53,6.309 -20.2,6.309 -5.53,0 -10.91,-0.586 -16.14,-1.762 -5.23,-1.172 -10.26,-2.933 -15.1,-5.277 v 14.078 c 5.84,2.348 11.51,4.105 17.01,5.281 5.52,1.172 10.89,1.758 16.1,1.758 14.08,0 24.59,-3.762 31.53,-11.293 6.97,-7.504 10.45,-18.883 10.45,-34.137"
         style="fill:#000000;fill-opacity:1;fill-rule:nonzero;stroke:none"
         id="path273" /><path
         d="m 2552.66,201.281 c 4.03,6.871 8.83,11.93 14.41,15.18 5.59,3.277 12.2,4.914 19.8,4.914 10.19,0 18.05,-3.52 23.57,-10.559 5.55,-7.015 8.33,-17.011 8.33,-29.992 v -60.355 h -16.43 v 59.84 c 0,9.144 -1.65,15.925 -4.95,20.351 -3.3,4.422 -8.35,6.637 -15.14,6.637 -8.29,0 -14.84,-2.715 -19.66,-8.141 -4.79,-5.402 -7.18,-12.785 -7.18,-22.148 v -56.539 h -16.43 v 59.84 c 0,9.191 -1.65,15.988 -4.95,20.386 -3.3,4.403 -8.4,6.602 -15.29,6.602 -8.19,0 -14.69,-2.727 -19.51,-8.176 -4.79,-5.453 -7.18,-12.824 -7.18,-22.113 v -56.539 h -16.43 v 98.558 h 16.43 v -14.078 c 3.66,5.621 8.05,9.766 13.16,12.43 5.13,2.664 11.22,3.996 18.26,3.996 7.11,0 13.15,-1.723 18.11,-5.168 4.99,-3.422 8.68,-8.398 11.08,-14.926"
         style="fill:#000000;fill-opacity:1;fill-rule:nonzero;stroke:none"
         id="path275" /><path
         d="m 2736.39,174.738 v -7.336 h -75.1 c 0.71,-11.464 4.06,-20.203 10.05,-26.214 5.99,-5.989 14.32,-8.985 25.01,-8.985 6.2,0 12.22,0.781 18.04,2.348 5.81,1.562 11.58,3.91 17.3,7.039 v -14.078 c -5.76,-3.059 -11.68,-5.391 -17.74,-7.004 -6.04,-1.59 -12.16,-2.383 -18.37,-2.383 -15.6,0 -27.95,4.559 -37.07,13.676 -9.1,9.14 -13.64,21.496 -13.64,37.07 0,16.106 4.36,28.879 13.09,38.317 8.72,9.457 20.49,14.187 35.31,14.187 13.3,0 23.8,-4.18 31.53,-12.539 7.72,-8.359 11.59,-19.727 11.59,-34.098 m -16.43,4.399 c -0.12,8.554 -2.63,15.386 -7.51,20.496 -4.87,5.109 -11.31,7.664 -19.33,7.664 -9.09,0 -16.38,-2.469 -21.85,-7.406 -5.45,-4.938 -8.59,-11.895 -9.43,-20.864 l 58.12,0.11"
         style="fill:#000000;fill-opacity:1;fill-rule:nonzero;stroke:none"
         id="path277" /><path
         d="m 2837.54,247.188 v -28.161 h 32.85 v -11.73 h -32.85 v -53.754 c 0,-8.066 1.08,-13.25 3.23,-15.547 2.17,-2.297 6.59,-3.445 13.23,-3.445 h 16.39 V 120.469 H 2854 c -12.44,0 -21.03,2.371 -25.77,7.113 -4.75,4.77 -7.12,13.422 -7.12,25.961 v 53.754 h -11.73 v 11.73 h 11.73 v 28.161 h 16.43"
         style="fill:#000000;fill-opacity:1;fill-rule:nonzero;stroke:none"
         id="path279" /><path
         d="m 2974.05,180.824 v -60.355 h -16.43 v 59.84 c 0,9.019 -1.8,15.765 -5.39,20.242 -3.57,4.496 -8.94,6.746 -16.1,6.746 -8.6,0 -15.38,-2.715 -20.35,-8.141 -4.96,-5.402 -7.44,-12.785 -7.44,-22.148 v -56.539 h -16.43 v 136.105 h 16.43 v -51.625 c 3.84,5.5 8.36,9.606 13.57,12.321 5.2,2.738 11.2,4.105 18,4.105 11.24,0 19.74,-3.434 25.48,-10.301 5.77,-6.847 8.66,-16.929 8.66,-30.25"
         style="fill:#000000;fill-opacity:1;fill-rule:nonzero;stroke:none"
         id="path281" /><path
         d="m 3062.92,204.949 c -1.76,0.809 -3.66,1.395 -5.72,1.762 -2.05,0.391 -4.32,0.586 -6.82,0.586 -8.8,0 -15.56,-2.945 -20.27,-8.836 -4.72,-5.867 -7.08,-14.301 -7.08,-25.301 v -52.691 h -16.42 v 98.558 h 16.42 v -14.078 c 3.27,5.551 7.54,9.668 12.8,12.356 5.25,2.715 11.63,4.07 19.14,4.07 1.07,0 2.26,0 3.55,0 1.3,0 2.74,0 4.33,0 l 0.07,-16.426"
         style="fill:#000000;fill-opacity:1;fill-rule:nonzero;stroke:none"
         id="path283" /><path
         d="m 3161.17,174.738 v -7.336 h -75.09 c 0.71,-11.464 4.06,-20.203 10.05,-26.214 5.99,-5.989 14.32,-8.985 25,-8.985 6.21,0 12.23,0.781 18.04,2.348 5.82,1.562 11.59,3.91 17.31,7.039 v -14.078 c -5.77,-3.059 -11.68,-5.391 -17.75,-7.004 -6.03,-1.59 -12.16,-2.383 -18.37,-2.383 -15.59,0 -27.95,4.559 -37.07,13.676 -9.09,9.14 -13.64,21.496 -13.64,37.07 0,16.106 4.37,28.879 13.09,38.317 8.73,9.457 20.5,14.187 35.31,14.187 13.3,0 23.81,-4.18 31.54,-12.539 7.72,-8.359 11.58,-19.727 11.58,-34.098 m -16.42,4.399 c -0.12,8.554 -2.63,15.386 -7.52,20.496 -4.87,5.109 -11.3,7.664 -19.32,7.664 -9.1,0 -16.38,-2.469 -21.86,-7.406 -5.45,-4.938 -8.59,-11.895 -9.42,-20.864 l 58.12,0.11"
         style="fill:#000000;fill-opacity:1;fill-rule:nonzero;stroke:none"
         id="path285" /><path
         d="m 3231.6,169.75 c -12.66,0 -21.44,-1.453 -26.33,-4.363 -4.88,-2.91 -7.33,-7.883 -7.33,-14.922 0,-5.598 1.83,-10.047 5.5,-13.348 3.67,-3.277 8.65,-4.914 14.96,-4.914 8.7,0 15.68,3.082 20.94,9.238 5.25,6.188 7.88,14.399 7.88,24.641 v 3.668 h -15.62 m 32.04,6.195 v -55.476 h -16.42 v 14.082 c -3.62,-5.621 -8.13,-9.766 -13.53,-12.43 -5.4,-2.664 -12.01,-3.996 -19.83,-3.996 -9.91,0 -17.78,2.762 -23.62,8.285 -5.82,5.551 -8.72,12.969 -8.72,22.258 0,10.852 3.65,19.027 10.96,24.527 7.31,5.528 18.22,8.289 32.74,8.289 h 22 v 1.758 c 0,7.653 -2.41,13.567 -7.22,17.746 -4.79,4.207 -11.53,6.309 -20.21,6.309 -5.52,0 -10.9,-0.586 -16.13,-1.762 -5.23,-1.172 -10.27,-2.933 -15.11,-5.277 v 14.078 c 5.84,2.348 11.52,4.105 17.02,5.281 5.52,1.172 10.89,1.758 16.09,1.758 14.08,0 24.59,-3.762 31.54,-11.293 6.96,-7.504 10.44,-18.883 10.44,-34.137"
         style="fill:#000000;fill-opacity:1;fill-rule:nonzero;stroke:none"
         id="path287" /><path
         d="m 3363.07,204.949 v 51.625 h 16.42 V 120.469 h -16.42 v 14.082 c -3.33,-5.551 -7.53,-9.68 -12.62,-12.395 -5.08,-2.687 -11.19,-4.031 -18.33,-4.031 -11.66,0 -21.16,4.742 -28.49,14.227 -7.31,9.484 -10.96,21.949 -10.96,37.398 0,15.449 3.65,27.914 10.96,37.398 7.33,9.485 16.83,14.227 28.49,14.227 7.14,0 13.25,-1.355 18.33,-4.07 5.09,-2.688 9.29,-6.805 12.62,-12.356 m -53.98,-35.199 c 0,-11.711 2.4,-20.898 7.19,-27.574 4.79,-6.649 11.38,-9.973 19.76,-9.973 8.39,0 14.99,3.324 19.8,9.973 4.82,6.676 7.23,15.863 7.23,27.574 0,11.707 -2.41,20.887 -7.23,27.535 -4.81,6.676 -11.41,10.012 -19.8,10.012 -8.38,0 -14.97,-3.336 -19.76,-10.012 -4.79,-6.648 -7.19,-15.828 -7.19,-27.535"
         style="fill:#000000;fill-opacity:1;fill-rule:nonzero;stroke:none"
         id="path289" /><path
         d="m 3692.07,1140.93 h 444.77"
         style="fill:none;stroke:#000000;stroke-width:14.173;stroke-linecap:butt;stroke-linejoin:miter;stroke-miterlimit:10;stroke-dasharray:none;stroke-opacity:1"
         id="path291" /><path
         d="m 4243.14,1140.93 -141.73,-70.87 35.43,70.87 -35.43,70.86"
         style="fill:#000000;fill-opacity:1;fill-rule:evenodd;stroke:none"
         id="path293" /><path
         d="m 4243.14,1140.93 -141.73,-70.87 35.43,70.87 -35.43,70.86 z"
         style="fill:none;stroke:#000000;stroke-width:14.173;stroke-linecap:butt;stroke-linejoin:miter;stroke-miterlimit:10;stroke-dasharray:none;stroke-opacity:1"
         id="path295" /><path
         d="m 4258.99,857.465 h 1984.22 v 566.922 H 4258.99 Z"
         style="fill:#ffffff;fill-opacity:1;fill-rule:nonzero;stroke:none"
         id="path297" /><path
         d="m 4258.99,857.465 h 1984.22 v 566.922 H 4258.99 Z"
         style="fill:none;stroke:#000000;stroke-width:14.173;stroke-linecap:butt;stroke-linejoin:miter;stroke-miterlimit:10;stroke-dasharray:none;stroke-opacity:1"
         id="path299" /><path
         d="m 4431.32,1312.51 h 18.77 v -114.99 h 63.36 v -14.07 h -82.13 v 129.06"
         style="fill:#000000;fill-opacity:1;fill-rule:nonzero;stroke:none"
         id="path301" /><path
         d="m 4575.61,1232.73 c -12.67,0 -21.44,-1.46 -26.33,-4.37 -4.89,-2.91 -7.33,-7.88 -7.33,-14.92 0,-5.6 1.83,-10.05 5.5,-13.35 3.66,-3.27 8.65,-4.91 14.96,-4.91 8.7,0 15.68,3.08 20.93,9.24 5.26,6.18 7.89,14.4 7.89,24.64 v 3.67 h -15.62 m 32.04,6.19 v -55.47 h -16.42 v 14.07 c -3.62,-5.62 -8.13,-9.76 -13.53,-12.43 -5.41,-2.66 -12.02,-3.99 -19.84,-3.99 -9.9,0 -17.77,2.76 -23.61,8.29 -5.82,5.54 -8.73,12.96 -8.73,22.25 0,10.86 3.65,19.03 10.96,24.53 7.31,5.53 18.22,8.29 32.75,8.29 h 22 v 1.76 c 0,7.65 -2.41,13.57 -7.23,17.74 -4.79,4.21 -11.52,6.31 -20.2,6.31 -5.53,0 -10.91,-0.59 -16.14,-1.76 -5.23,-1.17 -10.26,-2.93 -15.1,-5.28 v 14.08 c 5.84,2.35 11.51,4.11 17.01,5.28 5.53,1.18 10.89,1.76 16.1,1.76 14.08,0 24.59,-3.76 31.53,-11.29 6.97,-7.51 10.45,-18.88 10.45,-34.14"
         style="fill:#000000;fill-opacity:1;fill-rule:nonzero;stroke:none"
         id="path303" /><path
         d="M 4643.71,1221.58 V 1282 h 16.43 v -59.8 c 0,-8.99 1.78,-15.75 5.35,-20.27 3.57,-4.5 8.94,-6.75 16.1,-6.75 8.58,0 15.36,2.7 20.35,8.1 4.98,5.43 7.48,12.81 7.48,22.15 V 1282 h 16.42 v -98.55 h -16.42 v 14.07 c -3.89,-5.54 -8.41,-9.68 -13.57,-12.39 -5.13,-2.69 -11.1,-4.03 -17.89,-4.03 -11.22,0 -19.74,3.43 -25.56,10.3 -5.79,6.9 -8.69,16.96 -8.69,30.18 m 40.56,62.77 v 0"
         style="fill:#000000;fill-opacity:1;fill-rule:nonzero;stroke:none"
         id="path305" /><path
         d="m 4840.54,1243.8 v -60.35 h -16.43 v 59.84 c 0,9.01 -1.8,15.76 -5.39,20.23 -3.57,4.5 -8.93,6.75 -16.1,6.75 -8.6,0 -15.39,-2.71 -20.35,-8.14 -4.96,-5.4 -7.44,-12.78 -7.44,-22.15 v -56.53 H 4758.4 V 1282 h 16.43 v -14.07 c 3.84,5.5 8.36,9.6 13.56,12.32 5.21,2.73 11.21,4.1 18.01,4.1 11.24,0 19.74,-3.43 25.48,-10.3 5.77,-6.85 8.66,-16.93 8.66,-30.25"
         style="fill:#000000;fill-opacity:1;fill-rule:nonzero;stroke:none"
         id="path307" /><path
         d="m 4943.49,1277.31 v -14.08 c -4.59,2.35 -9.2,4.11 -13.82,5.28 -4.6,1.17 -9.24,1.76 -13.93,1.76 -10.54,0 -18.71,-3.29 -24.53,-9.86 -5.82,-6.58 -8.73,-15.8 -8.73,-27.68 0,-11.89 2.91,-21.11 8.73,-27.69 5.82,-6.58 13.99,-9.86 24.53,-9.86 4.69,0 9.33,0.59 13.93,1.76 4.62,1.17 9.23,2.93 13.82,5.28 v -14.08 c -4.49,-2.35 -9.15,-4.11 -13.97,-5.28 -4.79,-1.18 -9.89,-1.76 -15.32,-1.76 -14.74,0 -26.45,4.64 -35.13,13.93 -8.68,9.31 -13.02,21.88 -13.02,37.7 0,16.03 4.39,28.65 13.17,37.84 8.77,9.18 20.79,13.78 36.04,13.78 4.96,0 9.8,-0.58 14.52,-1.76 4.72,-1.17 9.29,-2.93 13.71,-5.28"
         style="fill:#000000;fill-opacity:1;fill-rule:nonzero;stroke:none"
         id="path309" /><path
         d="m 5055.05,1243.8 v -60.35 h -16.42 v 59.84 c 0,9.01 -1.8,15.76 -5.39,20.23 -3.57,4.5 -8.94,6.75 -16.1,6.75 -8.6,0 -15.39,-2.71 -20.35,-8.14 -4.96,-5.4 -7.44,-12.78 -7.44,-22.15 v -56.53 h -16.43 v 136.1 h 16.43 v -51.62 c 3.83,5.5 8.36,9.6 13.56,12.32 5.21,2.73 11.21,4.1 18.01,4.1 11.24,0 19.74,-3.43 25.48,-10.3 5.77,-6.85 8.65,-16.93 8.65,-30.25"
         style="fill:#000000;fill-opacity:1;fill-rule:nonzero;stroke:none"
         id="path311" /><path
         d="m 5205.97,1277.31 v -14.08 c -4.4,2.35 -8.97,4.11 -13.71,5.28 -4.74,1.17 -9.66,1.76 -14.74,1.76 -7.73,0 -13.52,-1.21 -17.38,-3.63 -3.86,-2.42 -5.8,-6.05 -5.8,-10.89 0,-3.69 1.35,-6.59 4.04,-8.69 2.71,-2.1 8.16,-4.11 16.35,-6.01 l 5.24,-1.21 c 11.1,-2.45 18.99,-5.91 23.66,-10.38 4.69,-4.47 7.03,-10.72 7.03,-18.73 0,-9.12 -3.49,-16.35 -10.48,-21.68 -6.99,-5.3 -16.61,-7.95 -28.86,-7.95 -5.11,0 -10.43,0.58 -15.95,1.76 -5.52,1.17 -11.34,2.93 -17.45,5.28 v 16.43 c 5.74,-3.13 11.4,-5.48 16.97,-7.05 5.58,-1.56 11.09,-2.34 16.54,-2.34 7.34,0 12.97,1.28 16.91,3.85 3.93,2.59 5.9,6.22 5.9,10.89 0,4.35 -1.4,7.67 -4.18,9.97 -2.79,2.32 -8.91,4.56 -18.37,6.71 l -5.32,1.29 c -10.05,2.1 -17.3,5.32 -21.78,9.68 -4.45,4.34 -6.67,10.31 -6.67,17.89 0,9.21 3.22,16.33 9.68,21.34 6.45,5.03 15.61,7.55 27.46,7.55 5.87,0 11.39,-0.58 16.57,-1.76 5.19,-1.17 9.96,-2.93 14.34,-5.28"
         style="fill:#000000;fill-opacity:1;fill-rule:nonzero;stroke:none"
         id="path313" /><path
         d="m 5276.7,1270.27 c -8.7,0 -15.58,-3.35 -20.64,-10.04 -5.04,-6.7 -7.56,-15.87 -7.56,-27.5 0,-11.64 2.51,-20.81 7.52,-27.5 5.04,-6.7 11.93,-10.05 20.68,-10.05 8.66,0 15.5,3.36 20.53,10.08 5.07,6.72 7.59,15.88 7.59,27.47 0,11.53 -2.52,20.68 -7.59,27.42 -5.03,6.75 -11.87,10.12 -20.53,10.12 m -0.04,14.08 c 13.89,0 24.79,-4.57 32.71,-13.71 7.92,-9.12 11.88,-21.76 11.88,-37.91 0,-16.11 -3.96,-28.75 -11.88,-37.92 -7.92,-9.14 -18.82,-13.71 -32.71,-13.71 -13.93,0 -24.84,4.57 -32.74,13.71 -7.89,9.17 -11.84,21.81 -11.84,37.92 0,16.15 3.95,28.79 11.84,37.91 7.9,9.14 18.81,13.71 32.74,13.71"
         style="fill:#000000;fill-opacity:1;fill-rule:nonzero;stroke:none"
         id="path315" /><path
         d="m 5427.31,1264.26 c 4.03,6.87 8.83,11.93 14.41,15.18 5.6,3.27 12.19,4.91 19.8,4.91 10.19,0 18.05,-3.52 23.57,-10.56 5.55,-7.01 8.33,-17.01 8.33,-29.99 v -60.35 h -16.43 v 59.84 c 0,9.14 -1.65,15.92 -4.95,20.34 -3.3,4.43 -8.34,6.64 -15.14,6.64 -8.29,0 -14.84,-2.71 -19.65,-8.14 -4.8,-5.4 -7.19,-12.78 -7.19,-22.15 v -56.53 h -16.43 v 59.84 c 0,9.19 -1.65,15.98 -4.95,20.38 -3.3,4.4 -8.39,6.6 -15.29,6.6 -8.19,0 -14.69,-2.72 -19.5,-8.18 -4.8,-5.45 -7.19,-12.82 -7.19,-22.11 v -56.53 h -16.43 V 1282 h 16.43 v -14.07 c 3.67,5.62 8.05,9.76 13.16,12.43 5.14,2.66 11.22,3.99 18.26,3.99 7.11,0 13.15,-1.72 18.11,-5.17 4.99,-3.42 8.68,-8.39 11.08,-14.92"
         style="fill:#000000;fill-opacity:1;fill-rule:nonzero;stroke:none"
         id="path317" /><path
         d="m 5611.04,1237.71 v -7.33 h -75.09 c 0.7,-11.47 4.05,-20.2 10.04,-26.22 5.99,-5.99 14.33,-8.98 25.01,-8.98 6.21,0 12.22,0.78 18.04,2.34 5.82,1.57 11.59,3.92 17.3,7.05 v -14.09 c -5.77,-3.05 -11.68,-5.39 -17.74,-7 -6.04,-1.59 -12.16,-2.38 -18.37,-2.38 -15.6,0 -27.95,4.56 -37.07,13.67 -9.09,9.15 -13.64,21.5 -13.64,37.07 0,16.11 4.36,28.89 13.09,38.32 8.73,9.46 20.5,14.19 35.31,14.19 13.29,0 23.81,-4.18 31.53,-12.54 7.73,-8.36 11.59,-19.72 11.59,-34.1 m -16.43,4.4 c -0.12,8.56 -2.63,15.39 -7.52,20.5 -4.86,5.11 -11.3,7.66 -19.32,7.66 -9.09,0 -16.38,-2.47 -21.85,-7.41 -5.45,-4.93 -8.59,-11.89 -9.42,-20.86 l 58.11,0.11"
         style="fill:#000000;fill-opacity:1;fill-rule:nonzero;stroke:none"
         id="path319" /><path
         d="m 5686.38,1282 h 16.1 l 20.09,-76.92 20.02,76.92 h 18.99 l 20.1,-76.92 20.02,76.92 h 16.09 l -25.63,-98.55 h -18.95 l -21.09,80.77 -21.16,-80.77 h -18.95 l -25.63,98.55"
         style="fill:#000000;fill-opacity:1;fill-rule:nonzero;stroke:none"
         id="path321" /><path
         d="m 5881.32,1270.27 c -8.71,0 -15.59,-3.35 -20.65,-10.04 -5.03,-6.7 -7.55,-15.87 -7.55,-27.5 0,-11.64 2.51,-20.81 7.52,-27.5 5.03,-6.7 11.93,-10.05 20.68,-10.05 8.65,0 15.49,3.36 20.53,10.08 5.06,6.72 7.59,15.88 7.59,27.47 0,11.53 -2.53,20.68 -7.59,27.42 -5.04,6.75 -11.88,10.12 -20.53,10.12 m -0.04,14.08 c 13.88,0 24.79,-4.57 32.7,-13.71 7.93,-9.12 11.89,-21.76 11.89,-37.91 0,-16.11 -3.96,-28.75 -11.89,-37.92 -7.91,-9.14 -18.82,-13.71 -32.7,-13.71 -13.93,0 -24.85,4.57 -32.74,13.71 -7.9,9.17 -11.84,21.81 -11.84,37.92 0,16.15 3.94,28.79 11.84,37.91 7.89,9.14 18.81,13.71 32.74,13.71"
         style="fill:#000000;fill-opacity:1;fill-rule:nonzero;stroke:none"
         id="path323" /><path
         d="m 6011.21,1267.93 c -1.76,0.8 -3.67,1.39 -5.73,1.75 -2.05,0.39 -4.32,0.59 -6.81,0.59 -8.8,0 -15.56,-2.95 -20.28,-8.84 -4.72,-5.86 -7.08,-14.3 -7.08,-25.29 v -52.69 h -16.42 V 1282 h 16.42 v -14.07 c 3.28,5.54 7.55,9.66 12.8,12.35 5.25,2.72 11.64,4.07 19.14,4.07 1.07,0 2.26,0 3.55,0 1.3,0 2.74,0 4.33,0 l 0.08,-16.42"
         style="fill:#000000;fill-opacity:1;fill-rule:nonzero;stroke:none"
         id="path325" /><path
         d="m 6029.22,1319.55 h 16.43 v -80.04 l 47.67,42.49 h 20.38 l -51.55,-46.12 53.9,-52.43 h -20.9 l -49.5,48.14 v -48.14 h -16.43 v 136.1"
         style="fill:#000000;fill-opacity:1;fill-rule:nonzero;stroke:none"
         id="path327" /><path
         d="m 4468.9,1043.5 c -8.7,0 -15.58,-3.34 -20.64,-10.04 -5.04,-6.7 -7.56,-15.87 -7.56,-27.5 0,-11.64 2.51,-20.804 7.52,-27.503 5.03,-6.699 11.93,-10.047 20.68,-10.047 8.65,0 15.5,3.363 20.53,10.082 5.06,6.723 7.59,15.879 7.59,27.468 0,11.54 -2.53,20.68 -7.59,27.42 -5.03,6.75 -11.88,10.12 -20.53,10.12 m -0.04,14.08 c 13.89,0 24.79,-4.57 32.71,-13.71 7.92,-9.12 11.88,-21.76 11.88,-37.91 0,-16.112 -3.96,-28.749 -11.88,-37.917 -7.92,-9.141 -18.82,-13.711 -32.71,-13.711 -13.93,0 -24.84,4.57 -32.74,13.711 -7.9,9.168 -11.84,21.805 -11.84,37.917 0,16.15 3.94,28.79 11.84,37.91 7.9,9.14 18.81,13.71 32.74,13.71"
         style="fill:#000000;fill-opacity:1;fill-rule:nonzero;stroke:none"
         id="path329" /><path
         d="m 4624.6,1017.03 v -60.354 h -16.42 v 59.844 c 0,9.02 -1.8,15.77 -5.39,20.24 -3.57,4.49 -8.94,6.74 -16.1,6.74 -8.6,0 -15.39,-2.71 -20.35,-8.14 -4.96,-5.4 -7.45,-12.78 -7.45,-22.14 v -56.544 h -16.42 v 98.564 h 16.42 v -14.08 c 3.84,5.5 8.37,9.6 13.57,12.32 5.21,2.73 11.21,4.1 18,4.1 11.25,0 19.74,-3.43 25.49,-10.3 5.77,-6.84 8.65,-16.93 8.65,-30.25"
         style="fill:#000000;fill-opacity:1;fill-rule:nonzero;stroke:none"
         id="path331" /><path
         d="m 4757.55,1005.96 c -12.66,0 -21.43,-1.46 -26.32,-4.37 -4.89,-2.906 -7.34,-7.879 -7.34,-14.918 0,-5.598 1.84,-10.047 5.5,-13.348 3.67,-3.277 8.66,-4.914 14.96,-4.914 8.7,0 15.69,3.082 20.94,9.242 5.26,6.184 7.88,14.395 7.88,24.638 v 3.67 h -15.62 m 32.05,6.19 v -55.474 h -16.43 v 14.082 c -3.62,-5.621 -8.12,-9.766 -13.53,-12.43 -5.4,-2.664 -12.01,-3.996 -19.84,-3.996 -9.89,0 -17.76,2.762 -23.6,8.285 -5.82,5.551 -8.73,12.969 -8.73,22.258 0,10.852 3.65,19.025 10.96,24.525 7.31,5.53 18.22,8.29 32.74,8.29 h 22 v 1.76 c 0,7.65 -2.4,13.57 -7.22,17.75 -4.79,4.2 -11.52,6.3 -20.2,6.3 -5.53,0 -10.91,-0.58 -16.14,-1.76 -5.23,-1.17 -10.26,-2.93 -15.1,-5.28 v 14.08 c 5.84,2.35 11.51,4.11 17.01,5.28 5.52,1.18 10.89,1.76 16.1,1.76 14.08,0 24.59,-3.76 31.53,-11.29 6.97,-7.5 10.45,-18.88 10.45,-34.14"
         style="fill:#000000;fill-opacity:1;fill-rule:nonzero;stroke:none"
         id="path333" /><path
         d="m 4907.79,1017.03 v -60.354 h -16.42 v 59.844 c 0,9.02 -1.8,15.77 -5.39,20.24 -3.57,4.49 -8.94,6.74 -16.1,6.74 -8.61,0 -15.39,-2.71 -20.35,-8.14 -4.96,-5.4 -7.44,-12.78 -7.44,-22.14 v -56.544 h -16.43 v 98.564 h 16.43 v -14.08 c 3.84,5.5 8.36,9.6 13.56,12.32 5.21,2.73 11.21,4.1 18.01,4.1 11.24,0 19.73,-3.43 25.48,-10.3 5.77,-6.84 8.65,-16.93 8.65,-30.25"
         style="fill:#000000;fill-opacity:1;fill-rule:nonzero;stroke:none"
         id="path335" /><path
         d="m 4977.93,1043.5 c -8.7,0 -15.58,-3.34 -20.64,-10.04 -5.03,-6.7 -7.55,-15.87 -7.55,-27.5 0,-11.64 2.51,-20.804 7.51,-27.503 5.04,-6.699 11.93,-10.047 20.68,-10.047 8.66,0 15.5,3.363 20.54,10.082 5.06,6.723 7.59,15.879 7.59,27.468 0,11.54 -2.53,20.68 -7.59,27.42 -5.04,6.75 -11.88,10.12 -20.54,10.12 m -0.03,14.08 c 13.88,0 24.78,-4.57 32.71,-13.71 7.91,-9.12 11.87,-21.76 11.87,-37.91 0,-16.112 -3.96,-28.749 -11.87,-37.917 -7.93,-9.141 -18.83,-13.711 -32.71,-13.711 -13.94,0 -24.85,4.57 -32.74,13.711 -7.9,9.168 -11.85,21.805 -11.85,37.917 0,16.15 3.95,28.79 11.85,37.91 7.89,9.14 18.8,13.71 32.74,13.71"
         style="fill:#000000;fill-opacity:1;fill-rule:nonzero;stroke:none"
         id="path337" /><path
         d="m 5067.93,1083.39 v -28.15 h 32.86 v -11.74 h -32.86 v -53.75 c 0,-8.066 1.08,-13.25 3.23,-15.547 2.17,-2.297 6.59,-3.445 13.23,-3.445 h 16.4 v -14.082 h -16.4 c -12.44,0 -21.03,2.371 -25.77,7.113 -4.74,4.77 -7.12,13.422 -7.12,25.961 v 53.75 h -11.73 v 11.74 h 11.73 v 28.15 h 16.43"
         style="fill:#000000;fill-opacity:1;fill-rule:nonzero;stroke:none"
         id="path339" /><path
         d="m 5204.44,1017.03 v -60.354 h -16.43 v 59.844 c 0,9.02 -1.8,15.77 -5.39,20.24 -3.57,4.49 -8.94,6.74 -16.1,6.74 -8.6,0 -15.38,-2.71 -20.35,-8.14 -4.96,-5.4 -7.44,-12.78 -7.44,-22.14 v -56.544 h -16.43 v 136.104 h 16.43 v -51.62 c 3.84,5.5 8.36,9.6 13.57,12.32 5.2,2.73 11.2,4.1 18,4.1 11.24,0 19.74,-3.43 25.48,-10.3 5.77,-6.84 8.66,-16.93 8.66,-30.25"
         style="fill:#000000;fill-opacity:1;fill-rule:nonzero;stroke:none"
         id="path341" /><path
         d="m 5321.48,1010.95 v -7.34 h -75.1 c 0.71,-11.465 4.06,-20.204 10.05,-26.215 5.99,-5.989 14.32,-8.985 25.01,-8.985 6.2,0 12.22,0.781 18.04,2.348 5.81,1.562 11.58,3.91 17.3,7.039 v -14.078 c -5.77,-3.059 -11.68,-5.391 -17.74,-7.004 -6.04,-1.59 -12.16,-2.383 -18.38,-2.383 -15.59,0 -27.95,4.559 -37.06,13.676 -9.1,9.14 -13.64,21.5 -13.64,37.072 0,16.11 4.36,28.88 13.09,38.31 8.72,9.46 20.49,14.19 35.31,14.19 13.29,0 23.8,-4.18 31.53,-12.54 7.72,-8.36 11.59,-19.72 11.59,-34.09 m -16.43,4.39 c -0.12,8.56 -2.63,15.39 -7.52,20.5 -4.86,5.11 -11.3,7.66 -19.32,7.66 -9.09,0 -16.38,-2.46 -21.85,-7.4 -5.45,-4.94 -8.59,-11.9 -9.43,-20.87 l 58.12,0.11"
         style="fill:#000000;fill-opacity:1;fill-rule:nonzero;stroke:none"
         id="path343" /><path
         d="m 5405.18,1041.16 c -1.77,0.8 -3.67,1.39 -5.72,1.76 -2.06,0.39 -4.33,0.58 -6.82,0.58 -8.8,0 -15.56,-2.94 -20.28,-8.83 -4.72,-5.87 -7.08,-14.3 -7.08,-25.3 v -52.694 h -16.42 v 98.564 h 16.42 v -14.08 c 3.28,5.55 7.54,9.66 12.8,12.35 5.26,2.72 11.63,4.07 19.14,4.07 1.07,0 2.26,0 3.56,0 1.29,0 2.74,0 4.32,0 l 0.08,-16.42"
         style="fill:#000000;fill-opacity:1;fill-rule:nonzero;stroke:none"
         id="path345" /><path
         d="m 5496.96,1083.39 v -28.15 h 32.86 v -11.74 h -32.86 v -53.75 c 0,-8.066 1.08,-13.25 3.23,-15.547 2.18,-2.297 6.59,-3.445 13.24,-3.445 h 16.39 v -14.082 h -16.39 c -12.44,0 -21.04,2.371 -25.78,7.113 -4.74,4.77 -7.11,13.422 -7.11,25.961 v 53.75 h -11.73 v 11.74 h 11.73 v 28.15 h 16.42"
         style="fill:#000000;fill-opacity:1;fill-rule:nonzero;stroke:none"
         id="path347" /><path
         d="m 5633.47,1017.03 v -60.354 h -16.43 v 59.844 c 0,9.02 -1.79,15.77 -5.38,20.24 -3.57,4.49 -8.94,6.74 -16.1,6.74 -8.61,0 -15.39,-2.71 -20.35,-8.14 -4.96,-5.4 -7.44,-12.78 -7.44,-22.14 v -56.544 h -16.43 v 136.104 h 16.43 v -51.62 c 3.83,5.5 8.36,9.6 13.56,12.32 5.21,2.73 11.21,4.1 18.01,4.1 11.24,0 19.73,-3.43 25.48,-10.3 5.77,-6.84 8.65,-16.93 8.65,-30.25"
         style="fill:#000000;fill-opacity:1;fill-rule:nonzero;stroke:none"
         id="path349" /><path
         d="m 5722.35,1041.16 c -1.76,0.8 -3.67,1.39 -5.72,1.76 -2.05,0.39 -4.33,0.58 -6.82,0.58 -8.8,0 -15.56,-2.94 -20.27,-8.83 -4.72,-5.87 -7.08,-14.3 -7.08,-25.3 v -52.694 h -16.43 v 98.564 h 16.43 v -14.08 c 3.27,5.55 7.54,9.66 12.79,12.35 5.26,2.72 11.64,4.07 19.14,4.07 1.08,0 2.27,0 3.56,0 1.3,0 2.74,0 4.33,0 l 0.07,-16.42"
         style="fill:#000000;fill-opacity:1;fill-rule:nonzero;stroke:none"
         id="path351" /><path
         d="m 5820.6,1010.95 v -7.34 h -75.09 c 0.7,-11.465 4.05,-20.204 10.04,-26.215 5.99,-5.989 14.33,-8.985 25.01,-8.985 6.21,0 12.22,0.781 18.04,2.348 5.82,1.562 11.59,3.91 17.31,7.039 v -14.078 c -5.77,-3.059 -11.69,-5.391 -17.75,-7.004 -6.04,-1.59 -12.16,-2.383 -18.37,-2.383 -15.59,0 -27.95,4.559 -37.07,13.676 -9.09,9.14 -13.64,21.5 -13.64,37.072 0,16.11 4.37,28.88 13.09,38.31 8.73,9.46 20.5,14.19 35.31,14.19 13.3,0 23.81,-4.18 31.53,-12.54 7.73,-8.36 11.59,-19.72 11.59,-34.09 m -16.43,4.39 c -0.12,8.56 -2.62,15.39 -7.51,20.5 -4.87,5.11 -11.31,7.66 -19.33,7.66 -9.09,0 -16.37,-2.46 -21.85,-7.4 -5.45,-4.94 -8.59,-11.9 -9.42,-20.87 l 58.11,0.11"
         style="fill:#000000;fill-opacity:1;fill-rule:nonzero;stroke:none"
         id="path353" /><path
         d="m 5891.03,1005.96 c -12.67,0 -21.44,-1.46 -26.33,-4.37 -4.89,-2.906 -7.33,-7.879 -7.33,-14.918 0,-5.598 1.83,-10.047 5.5,-13.348 3.67,-3.277 8.65,-4.914 14.96,-4.914 8.7,0 15.68,3.082 20.93,9.242 5.26,6.184 7.89,14.395 7.89,24.638 v 3.67 h -15.62 m 32.04,6.19 v -55.474 h -16.42 v 14.082 c -3.62,-5.621 -8.13,-9.766 -13.53,-12.43 -5.41,-2.664 -12.02,-3.996 -19.84,-3.996 -9.9,0 -17.77,2.762 -23.61,8.285 -5.82,5.551 -8.73,12.969 -8.73,22.258 0,10.852 3.65,19.025 10.96,24.525 7.31,5.53 18.23,8.29 32.75,8.29 h 22 v 1.76 c 0,7.65 -2.41,13.57 -7.23,17.75 -4.79,4.2 -11.52,6.3 -20.2,6.3 -5.52,0 -10.9,-0.58 -16.13,-1.76 -5.23,-1.17 -10.27,-2.93 -15.11,-5.28 v 14.08 c 5.84,2.35 11.51,4.11 17.01,5.28 5.53,1.18 10.89,1.76 16.1,1.76 14.08,0 24.59,-3.76 31.54,-11.29 6.96,-7.5 10.44,-18.88 10.44,-34.14"
         style="fill:#000000;fill-opacity:1;fill-rule:nonzero;stroke:none"
         id="path355" /><path
         d="m 6022.49,1041.16 v 51.62 h 16.43 V 956.676 h -16.43 v 14.082 c -3.32,-5.551 -7.53,-9.68 -12.61,-12.395 -5.08,-2.687 -11.2,-4.031 -18.33,-4.031 -11.66,0 -21.16,4.742 -28.49,14.227 -7.31,9.484 -10.97,21.949 -10.97,37.401 0,15.45 3.66,27.91 10.97,37.4 7.33,9.48 16.83,14.22 28.49,14.22 7.13,0 13.25,-1.35 18.33,-4.07 5.08,-2.69 9.29,-6.8 12.61,-12.35 m -53.97,-35.2 c 0,-11.71 2.39,-20.901 7.19,-27.577 4.79,-6.649 11.38,-9.973 19.76,-9.973 8.39,0 14.98,3.324 19.8,9.973 4.82,6.676 7.22,15.867 7.22,27.577 0,11.7 -2.4,20.88 -7.22,27.53 -4.82,6.68 -11.41,10.01 -19.8,10.01 -8.38,0 -14.97,-3.33 -19.76,-10.01 -4.8,-6.65 -7.19,-15.83 -7.19,-27.53"
         style="fill:#000000;fill-opacity:1;fill-rule:nonzero;stroke:none"
         id="path357" /></g></g></svg>
